<?xml version="1.0" encoding="UTF-8"?>
<svg viewBox="0 0 435.78427 309.71216" xmlns="http://www.w3.org/2000/svg" xmlns:xlink="http://www.w3.org/1999/xlink">
 <defs>
  <filter id="c">
   <feGaussianBlur stdDeviation=".3125"/>
  </filter>
  <filter id="j" x="-.03164" y="-.37283" width="1.0633" height="1.7456">
   <feGaussianBlur stdDeviation="3.57292"/>
  </filter>
  <linearGradient id="b">
   <stop stop-color="#eeeeec" offset="0"/>
   <stop stop-color="#eeeeec" stop-opacity="0" offset="1"/>
  </linearGradient>
  <linearGradient id="g" x1="314.26" x2="315.88" y1="760.29" y2="793.22" gradientUnits="userSpaceOnUse">
   <stop stop-color="#cececd" offset="0"/>
   <stop stop-color="#cececd" stop-opacity="0" offset="1"/>
  </linearGradient>
  <linearGradient id="i" x1="414.55" x2="415.64" y1="763.09" y2="767.42" gradientUnits="userSpaceOnUse" xlink:href="#b"/>
  <linearGradient id="h" x2="0" y1="740.88" y2="758.74" gradientUnits="userSpaceOnUse" xlink:href="#b"/>
  <linearGradient id="a" x1="399" x2="400.44" y1="820.47" y2="826.18" gradientUnits="userSpaceOnUse" xlink:href="#b"/>
  <linearGradient id="f" x1="311.76" x2="321.28" y1="545.18" y2="680.32" gradientUnits="userSpaceOnUse" xlink:href="#b"/>
  <radialGradient id="e" cx="249" cy="447.04" r="9" gradientUnits="userSpaceOnUse">
   <stop stop-color="#ef2929" offset="0"/>
   <stop stop-color="#ef2929" stop-opacity="0" offset="1"/>
  </radialGradient>
  <radialGradient id="d" cx="249" cy="447.04" r="9" gradientUnits="userSpaceOnUse">
   <stop stop-color="#c00" offset="0"/>
   <stop stop-color="#c00" stop-opacity="0" offset="1"/>
  </radialGradient>
 </defs>
 <g transform="translate(-106.04 -498.35)">
  <path d="m133.97 774.16-1.5 1.6875 0.28125 1.7188c0.41903-0.24492 0.91519-0.40625 1.4375-0.40625h25.844c4.1949 2.2229 10.963 4.1511 20.25 5.9062 9.5563 1.806 21.605 3.3879 35.625 4.7188 28.04 2.6617 63.9 4.25 102.97 4.25s74.929-1.5883 102.97-4.25c14.02-1.3308 26.069-2.9127 35.625-4.7188 9.286-1.755 16.055-3.6836 20.25-5.9062h36.875l-0.0625 0.53125c0.05134-0.00275 0.1042-0.03125 0.15625-0.03125h2.875l0.21875-1.8125-1.5-1.6875h-38.812l-0.71875 0.1875c-3.5058 1.9457-10.392 3.9696-19.812 5.75s-21.419 3.394-35.375 4.7188c-27.912 2.6496-63.7 4.2188-102.69 4.2188s-74.775-1.5692-102.69-4.2188c-13.956-1.3248-25.923-2.9384-35.344-4.7188s-16.338-3.8043-19.844-5.75l-0.71875-0.1875h-26.312z" fill="#e7e7e7"/>
  <path d="m108.95 498.35c-1.1816 0-2.125 0.94336-2.125 2.125v271.75c0 1.1816 0.94337 2.125 2.125 2.125h50.531c15.324 8.5048 80.538 14.875 158.59 14.875s143.27-6.3702 158.59-14.875h63.031c1.1816 0 2.125-0.94337 2.125-2.125v-271.75c0-1.1816-0.94337-2.125-2.125-2.125h-430.75z"/>
  <path d="m180.07 525.58h281.27a1.3663 1.3663 0 0 1 1.3663 1.3663v218.61a1.3663 1.3663 0 0 1 -1.3663 1.3663h-281.27a1.3663 1.3663 0 0 1 -1.3663 -1.3663v-218.61a1.3663 1.3663 0 0 1 1.3663 -1.3663" fill="#8d8d8d"/>
  <g transform="matrix(-1 0 0 1 643.57 -7)" fill="none" stroke="#8d8b8b" stroke-dasharray="3, 3" stroke-width="3">
   <path d="m104.54 552.36h48.083"/>
   <path d="m107.95 556.83h48.083"/>
   <path d="m104.54 562.36h48.083"/>
   <path d="m107.95 566.83h48.083"/>
   <path d="m104.54 572.36h48.083"/>
   <path d="m107.95 576.83h48.083"/>
   <path d="m104.54 582.36h48.083"/>
   <path d="m107.95 586.83h48.083"/>
   <path d="m104.54 592.36h48.083"/>
   <path d="m107.95 596.83h48.083"/>
   <path d="m104.54 602.36h48.083"/>
   <path d="m107.95 606.83h48.083"/>
   <path d="m104.54 612.36h48.083"/>
   <path d="m107.95 616.83h48.083"/>
   <path d="m104.54 622.36h48.083"/>
   <path d="m107.95 626.83h48.083"/>
   <path d="m104.54 632.36h48.083"/>
   <path d="m107.95 636.83h48.083"/>
   <path d="m104.54 642.36h48.083"/>
   <path d="m107.95 646.83h48.083"/>
   <path d="m104.54 652.36h48.083"/>
   <path d="m107.95 656.83h48.083"/>
   <path d="m104.54 662.36h48.083"/>
   <path d="m107.95 666.83h48.083"/>
   <path d="m104.54 672.36h48.083"/>
   <path d="m107.95 676.83h48.083"/>
   <path d="m104.54 682.36h48.083"/>
   <path d="m107.95 686.83h48.083"/>
   <path d="m104.54 692.36h48.083"/>
   <path d="m107.95 696.83h48.083"/>
   <path d="m104.54 702.36h48.083"/>
   <path d="m107.95 706.83h48.083"/>
   <path d="m104.54 712.36h48.083"/>
   <path d="m107.95 716.83h48.083"/>
   <path d="m104.54 722.36h48.083"/>
   <path d="m107.95 726.83h48.083"/>
   <path d="m104.54 732.36h48.083"/>
   <path d="m107.95 736.83h48.083"/>
  </g>
  <path d="m500.67 738.76h23.843a2.8284 2.8284 0 0 1 2.8284 2.8284v13.843a2.8284 2.8284 0 0 1 -2.8284 2.8284h-23.843a2.8284 2.8284 0 0 1 -2.8284 -2.8284v-13.843a2.8284 2.8284 0 0 1 2.8284 -2.8284" fill="#580600"/>
  <path d="m501.81 740.88c-1.4167 0-2.5428 1.1544-2.5428 2.5711v7.685s1.3378 2.6839 12.275-2.8284c8.5974-4.333 14.396 2.8284 14.396 2.8284v-7.685c0-1.4167-1.1544-2.5711-2.5711-2.5711h-21.558z" fill="url(#h)"/>
  <g transform="translate(3)" fill="none" stroke="#8d8b8b" stroke-dasharray="3, 3" stroke-width="3">
   <path d="m104.54 552.36h48.083"/>
   <path d="m107.95 556.83h48.083"/>
   <path d="m104.54 562.36h48.083"/>
   <path d="m107.95 566.83h48.083"/>
   <path d="m104.54 572.36h48.083"/>
   <path d="m107.95 576.83h48.083"/>
   <path d="m104.54 582.36h48.083"/>
   <path d="m107.95 586.83h48.083"/>
   <path d="m104.54 592.36h48.083"/>
   <path d="m107.95 596.83h48.083"/>
   <path d="m104.54 602.36h48.083"/>
   <path d="m107.95 606.83h48.083"/>
   <path d="m104.54 612.36h48.083"/>
   <path d="m107.95 616.83h48.083"/>
   <path d="m104.54 622.36h48.083"/>
   <path d="m107.95 626.83h48.083"/>
   <path d="m104.54 632.36h48.083"/>
   <path d="m107.95 636.83h48.083"/>
   <path d="m104.54 642.36h48.083"/>
   <path d="m107.95 646.83h48.083"/>
   <path d="m104.54 652.36h48.083"/>
   <path d="m107.95 656.83h48.083"/>
   <path d="m104.54 662.36h48.083"/>
   <path d="m107.95 666.83h48.083"/>
   <path d="m104.54 672.36h48.083"/>
   <path d="m107.95 676.83h48.083"/>
   <path d="m104.54 682.36h48.083"/>
   <path d="m107.95 686.83h48.083"/>
   <path d="m104.54 692.36h48.083"/>
   <path d="m107.95 696.83h48.083"/>
   <path d="m104.54 702.36h48.083"/>
   <path d="m107.95 706.83h48.083"/>
   <path d="m104.54 712.36h48.083"/>
   <path d="m107.95 716.83h48.083"/>
   <path d="m104.54 722.36h48.083"/>
   <path d="m107.95 726.83h48.083"/>
   <path d="m104.54 732.36h48.083"/>
   <path d="m107.95 736.83h48.083"/>
  </g>
  <path d="m184.26 760.29c3.2969 13.361 64.431 23.999 139.31 23.999 74.875 0 136.01-10.64 139.31-23.999h-278.62z" fill="#2e3436"/>
  <path transform="matrix(.64645 0 0 .64645 254.45 478.98)" d="m258 447.04a9 9 0 1 1 -18 0 9 9 0 1 1 18 0z" fill="url(#d)"/>
  <path d="m415.17234,762.4266c-2.78308,0-5.03701,2.254-5.03702,5.0371 0,.2378.02225.1214.05416.7041 0,0 1.25919-.8907 4.37767-2.2981 3.10819-1.4028 5.61512,2.2981 5.61512,2.2981 .03192-.2292.05417-.4663.05417-.7041 0-2.7831-2.28103-5.037-5.0641-5.0371z" fill="url(#i)"/>
  <path d="m184.26 760.29c3.2969 13.361 62.453 22.33 136.31 9.999 71.875-12 139.01 3.36 142.31-9.999h-278.62z" fill="url(#g)" opacity=".82746"/>
  <path transform="scale(1,-1)" d="m178.78-747.04h284v4.9498h-284z" fill="#d3d7cf" opacity=".82746"/>
  <path transform="scale(1,-1)" d="m178.78-530.66h284v4.9498h-284z" fill="#555753" opacity=".82746"/>
  <path transform="matrix(.59455 0 0 .56374 131.38 519.16)" d="m258 447.04a9 9 0 1 1 -18 0 9 9 0 1 1 18 0z" fill="#eeeeec" filter="url(#c)"/>
  <g transform="matrix(.63178 0 0 .63178 26.749 248.76)">
   <path transform="matrix(.85269 0 0 .85269 187.49 445.39)" d="m258 447.04a9 9 0 1 1 -18 0 9 9 0 1 1 18 0z" fill="#2e3436"/>
   <path d="m399.82 819.6c-3.671 0-6.644 2.9731-6.644 6.6441 0 0.31367 0.02935 0.16013 0.07144 0.92873 0 0 1.6609-1.1749 5.7743-3.0313 4.0998-1.8504 7.4065 3.0313 7.4065 3.0313 0.04211-0.30232 0.07146-0.61506 0.07146-0.92873 0-3.671-3.0088-6.644-6.6797-6.6441z" fill="url(#a)"/>
  </g>
  <path transform="matrix(.59455 0 0 .56374 145.16 519.16)" d="m258 447.04a9 9 0 1 1 -18 0 9 9 0 1 1 18 0z" fill="#eeeeec" filter="url(#c)"/>
  <g transform="matrix(.63178 0 0 .63178 40.538 248.76)">
   <path transform="matrix(.85269 0 0 .85269 187.49 445.39)" d="m258 447.04a9 9 0 1 1 -18 0 9 9 0 1 1 18 0z" fill="#2e3436"/>
   <path d="m399.82 819.6c-3.671 0-6.644 2.9731-6.644 6.6441 0 0.31367 0.02935 0.16013 0.07144 0.92873 0 0 1.6609-1.1749 5.7743-3.0313 4.0998-1.8504 7.4065 3.0313 7.4065 3.0313 0.04211-0.30232 0.07146-0.61506 0.07146-0.92873 0-3.671-3.0088-6.644-6.6797-6.6441z" fill="url(#a)"/>
  </g>
  <path transform="matrix(.59455 0 0 .56374 93.545 519.16)" d="m258 447.04a9 9 0 1 1 -18 0 9 9 0 1 1 18 0z" fill="#eeeeec" filter="url(#c)"/>
  <g transform="matrix(.63178 0 0 .63178 -11.081 248.76)">
   <path transform="matrix(.85269 0 0 .85269 187.49 445.39)" d="m258 447.04a9 9 0 1 1 -18 0 9 9 0 1 1 18 0z" fill="#2e3436"/>
   <path d="m399.82 819.6c-3.671 0-6.644 2.9731-6.644 6.6441 0 0.31367 0.02935 0.16013 0.07144 0.92873 0 0 1.6609-1.1749 5.7743-3.0313 4.0998-1.8504 7.4065 3.0313 7.4065 3.0313 0.04211-0.30232 0.07146-0.61506 0.07146-0.92873 0-3.671-3.0088-6.644-6.6797-6.6441z" fill="url(#a)"/>
  </g>
  <path transform="matrix(.59455 0 0 .56374 107.33 519.16)" d="m258 447.04a9 9 0 1 1 -18 0 9 9 0 1 1 18 0z" fill="#eeeeec" filter="url(#c)"/>
  <g transform="matrix(.63178 0 0 .63178 2.7078 248.76)">
   <path transform="matrix(.85269 0 0 .85269 187.49 445.39)" d="m258 447.04a9 9 0 1 1 -18 0 9 9 0 1 1 18 0z" fill="#2e3436"/>
   <path d="m399.82 819.6c-3.671 0-6.644 2.9731-6.644 6.6441 0 0.31367 0.02935 0.16013 0.07144 0.92873 0 0 1.6609-1.1749 5.7743-3.0313 4.0998-1.8504 7.4065 3.0313 7.4065 3.0313 0.04211-0.30232 0.07146-0.61506 0.07146-0.92873 0-3.671-3.0088-6.644-6.6797-6.6441z" fill="url(#a)"/>
  </g>
  <path transform="matrix(.16692 0 0 .16692 226.02 677.32)" d="m93.367 500.64v10.879h10.879v3.3203h-10.879v10.879h-3.2812v-10.879h-10.879v-3.3203h10.879v-10.879h3.2812"/>
  <path transform="matrix(.3094 0 0 .3094 229.31 603.95)" d="m76.922 513.16h10.527v3.2031h-10.527v-3.2031"/>
  <path d="m281.51 761.66-3.3644 1.1964 3.3644 1.1899v0.59334l-4.1794-1.5159v-0.54117l4.1794-1.5159v0.59333"/>
  <path d="m291.12 761.78v-0.59333l4.1794 1.5159v0.54117l-4.1794 1.5159v-0.59334l3.3579-1.1899-3.3579-1.1964"/>
  <path transform="matrix(.64645 0 0 .64645 358.2 459.73)" d="m258 447.04a9 9 0 1 1 -18 0 9 9 0 1 1 18 0z" fill="url(#e)" opacity=".52113"/>
  <path d="m185.88 533.04v81.312h0.25v38.312c0 10.786 9.1242 22.523 19.469 19.469 0 0 51.607-15.887 112.81-33.312 123.8-35.245 118.53 33.312 118.53 33.312 10.786 0 19.469-8.6828 19.469-19.469v-38.312h0.28125v-81.312h-270.81z" fill="url(#f)" opacity=".72887"/>
  <path transform="matrix(.20055 0 0 .20055 277.52 677.16)" d="m166.57 378.26c-2e-5 -2.6432-0.5469-4.7135-1.6406-6.2109-1.0807-1.5104-2.5716-2.2656-4.4727-2.2656s-3.3984 0.75522-4.4922 2.2656c-1.0807 1.4974-1.6211 3.5677-1.6211 6.2109s0.54036 4.7201 1.6211 6.2305c1.0937 1.4974 2.5911 2.2461 4.4922 2.2461s3.3919-0.74869 4.4727-2.2461c1.0937-1.5104 1.6406-3.5872 1.6406-6.2305m-12.227-7.6367c0.7552-1.3021 1.7057-2.2656 2.8516-2.8906 1.1588-0.63799 2.539-0.957 4.1406-0.95703 2.6562 3e-5 4.8112 1.0547 6.4648 3.1641 1.6666 2.1094 2.5 4.8828 2.5 8.3203s-0.83336 6.2109-2.5 8.3203c-1.6537 2.1094-3.8086 3.1641-6.4648 3.1641-1.6016 0-2.9818-0.3125-4.1406-0.9375-1.1458-0.63802-2.0964-1.6081-2.8516-2.9102v3.2812h-3.6133v-30.391h3.6133v11.836m30.391-0.80078c-1.9271 2e-5 -3.4505 0.75522-4.5703 2.2656-1.1198 1.4974-1.6797 3.5547-1.6797 6.1719s0.55338 4.681 1.6602 6.1914c1.1198 1.4974 2.6497 2.2461 4.5898 2.2461 1.914 0 3.431-0.75521 4.5508-2.2656s1.6797-3.5677 1.6797-6.1719c-2e-5 -2.5911-0.55992-4.6419-1.6797-6.1524-1.1198-1.5234-2.6367-2.2851-4.5508-2.2852m0-3.0469c3.125 3e-5 5.5794 1.0156 7.3633 3.0469s2.6758 4.8438 2.6758 8.4375c-2e-5 3.5807-0.89195 6.3932-2.6758 8.4375-1.7839 2.0312-4.2383 3.0469-7.3633 3.0469-3.138 0-5.599-1.0156-7.3828-3.0469-1.7708-2.0443-2.6563-4.8568-2.6562-8.4375-1e-5 -3.5937 0.88541-6.4062 2.6562-8.4375 1.7838-2.0312 4.2448-3.0468 7.3828-3.0469m19.531-5.6836v6.2109h7.4023v2.793h-7.4023v11.875c-1e-5 1.7838 0.24088 2.9297 0.72266 3.4375 0.49478 0.50781 1.4909 0.76172 2.9883 0.76171h3.6914v3.0078h-3.6914c-2.7734 0-4.6875-0.51433-5.7422-1.543-1.0547-1.0417-1.582-2.9297-1.582-5.6641v-11.875h-2.6367v-2.793h2.6367v-6.2109h3.6133m26.094 6.8555v3.3984c-1.0156-0.52082-2.0703-0.91144-3.1641-1.1719s-2.2266-0.39061-3.3984-0.39062c-1.7839 1e-5 -3.125 0.27345-4.0234 0.82031-0.88542 0.54689-1.3281 1.3672-1.3281 2.4609-1e-5 0.83334 0.319 1.4909 0.95703 1.9726 0.63801 0.46877 1.9206 0.91798 3.8476 1.3477l1.2305 0.27344c2.5521 0.54688 4.362 1.3216 5.4297 2.3242 1.0807 0.9896 1.6211 2.3763 1.6211 4.1602-2e-5 2.0312-0.80731 3.6393-2.4219 4.8242-1.6016 1.1849-3.8086 1.7773-6.6211 1.7773-1.1719 0-2.3958-0.11719-3.6719-0.35156-1.263-0.22135-2.5977-0.5599-4.0039-1.0156v-3.7109c1.3281 0.69011 2.6367 1.2109 3.9258 1.5625 1.289 0.33854 2.5651 0.50781 3.8281 0.50781 1.6927 0 2.9948-0.28646 3.9062-0.85937 0.91144-0.58594 1.3672-1.4062 1.3672-2.4609-2e-5 -0.97656-0.33205-1.7253-0.9961-2.2461-0.65105-0.52082-2.0898-1.0221-4.3164-1.5039l-1.25-0.29297c-2.2266-0.46874-3.8346-1.1849-4.8242-2.1484-0.98959-0.97655-1.4844-2.3112-1.4844-4.0039 0-2.0573 0.72917-3.6458 2.1875-4.7656s3.5286-1.6797 6.2109-1.6797c1.3281 3e-5 2.5781 0.09768 3.75 0.29297s2.2526 0.4883 3.2422 0.87891m15.391 1.875c-1.9271 2e-5 -3.4505 0.75522-4.5703 2.2656-1.1198 1.4974-1.6797 3.5547-1.6797 6.1719s0.55338 4.681 1.6602 6.1914c1.1198 1.4974 2.6497 2.2461 4.5898 2.2461 1.914 0 3.431-0.75521 4.5508-2.2656s1.6797-3.5677 1.6797-6.1719c-2e-5 -2.5911-0.55991-4.6419-1.6797-6.1524-1.1198-1.5234-2.6367-2.2851-4.5508-2.2852m0-3.0469c3.125 3e-5 5.5794 1.0156 7.3633 3.0469s2.6758 4.8438 2.6758 8.4375c-3e-5 3.5807-0.89195 6.3932-2.6758 8.4375-1.7839 2.0312-4.2383 3.0469-7.3633 3.0469-3.138 0-5.599-1.0156-7.3828-3.0469-1.7708-2.0443-2.6562-4.8568-2.6562-8.4375 0-3.5937 0.88541-6.4062 2.6562-8.4375 1.7838-2.0312 4.2448-3.0468 7.3828-3.0469m34.16 9.1992v13.203h-3.5938v-13.086c-2e-5 -2.0703-0.40366-3.6198-1.2109-4.6484s-2.0182-1.543-3.6328-1.543c-1.9401 2e-5 -3.4701 0.61851-4.5898 1.8555s-1.6797 2.9232-1.6797 5.0586v12.363h-3.6133v-21.875h3.6133v3.3984c0.85937-1.3151 1.8685-2.2982 3.0273-2.9492 1.1719-0.65102 2.5195-0.97654 4.043-0.97657 2.513 3e-5 4.414 0.78127 5.7031 2.3438 1.289 1.5495 1.9336 3.8346 1.9336 6.8555" fill="#eeeeec"/>
  <path d="m132.89 777.07 3.6562 31h375l3.6562-31h-38.812c-15.324 8.5048-80.538 14.875-158.59 14.875s-143.27-6.3702-158.59-14.875h-26.312z"/>
  <path d="m185.86 533.36h265.34a2.8284 2.8284 0 0 1 2.8284 2.8284v17.343a2.8284 2.8284 0 0 1 -2.8284 2.8284h-265.34a2.8284 2.8284 0 0 1 -2.8284 -2.8284v-17.343a2.8284 2.8284 0 0 1 2.8284 -2.8284" fill="#eeeeec" filter="url(#j)" opacity=".32042"/>
 </g>
</svg>
