<?xml version="1.0" encoding="UTF-8"?>
<svg viewBox="0 0 754.82239 518.08655" xmlns="http://www.w3.org/2000/svg">
 <g transform="translate(-1.6948 -462.96)" fill="#fff" stroke="#000">
  <path d="m322.62 862.21s10.519 64.75 13.147 87.626c2.632 22.916 29.574 29.684 54.086 25.563 24.302-1.6729 38.232-12.395 39.951-32.169-3.0638-24.749-24.248-90.6-24.248-90.6s-40.826-7.0402-51.143-4.3341-31.793 13.914-31.793 13.914z" fill-rule="evenodd" stroke-width="3.11"/>
  <path d="m455.41 722.83s158-74.106 208.13-100.29c51.604-26.959 125.19 1.8324 75.334 38.334-73.649 53.925-238.32 115.49-238.32 115.49s-48.062-3.4865-47.261-14.718 2.1227-38.809 2.1227-38.809z" fill-rule="evenodd" stroke-width="3.11"/>
  <path d="m267.02 742.55s-171.87-72.243-181.62-75.31c-10.109-3.1829-27.337-9.8204-38.128-10.857-24.883-2.3892-65.398 22.923-30.786 46.485 24.279 16.528 62.128 28.827 96.906 43.006 60.137 24.519 116.49 46.448 116.49 46.448s43.8-12.221 42.733-22.012-5.5973-27.761-5.5973-27.761z" fill-rule="evenodd" stroke-width="3.11"/>
  <path d="m356.7 844.9 5.1462 16.166s-25.695 3.1358-21.93 9.0483c1.3112 2.0589 3.9608 2.7413 5.6866 3.1346 6.0173 1.3713 9.6776-1.856 14.815-0.17174 5.6919 1.8661 3.044 4.7665 5.5877 7.7006 1.3796 1.5914 6.2165 4.0881 8.3558 3.6676 9.1388-1.7965 5.4623-7.4707 7.1282-8.4256 3.8065-2.1821 15.332-2.4096 20.554-4.0568 3.4141-1.0769 1.6657-4.4477-2.5338-5.9937-3.6296-1.3362-6.0571-2.0484-8.9564-2.3938-6.5476-0.77993-13.104-2.0088-13.104-2.0088l-4.9065-15.092-15.842-1.5749z" fill-rule="evenodd" stroke-width="3.11"/>
  <path d="m359.14 532.91-30.751 3.7518v166.96h41.001l-10.25-170.71z" fill-rule="evenodd" stroke-width="3.11"/>
  <path d="m281.29 478.51 36.855 69.408s34.851 13.048 51.251 1.8759c9.8759-6.7273 12.969-22.323 19.001-36.91 8.4532-20.444 17.9-40.002 17.9-40.002s-74.23-23.295-125.01 5.6277z" fill-rule="evenodd" stroke-width="3.11"/>
  <path d="m298.07 756.2s3.696-19.566 9.7293-35.49 18.121-31.606 18.121-31.606 32.42-10.766 47.603 1.7886c19.871 16.431 39.004 64.528 39.004 64.528s-54.926 21.751-114.46 0.77939z" fill-rule="evenodd" stroke-width="3.11"/>
  <path d="m298.07 756.2s3.696-19.566 9.7293-35.49 18.121-31.606 18.121-31.606 32.42-10.766 47.603 1.7886c19.871 16.431 39.004 64.528 39.004 64.528s-54.926 21.751-114.46 0.77939z" fill-rule="evenodd" stroke-width="3.11"/>
  <path d="m279.19 769.12c-1.8095 7.6986-4.1574 33.9-2.9467 39.937 11.778 58.734 156.65 39.256 169.53-3.4298 0.36053-1.1942 1.4997 0.90789 2.0077-4.3815 0.35697-3.717 0.40224-14.97-0.35336-16.785 8.2905-50.166-126.98-60.47-168.24-15.341z" fill-rule="evenodd" stroke-width="3.11"/>
  <path d="m277.37 799.41c-3.0234 12.863-0.54109 21.019 5.0505 28.557 7.4326 10.021 20.639 17.671 36.434 21.379 31.934 7.4966 73.563 4.8153 101.78-6.9915 17.654-7.3868 26.753-19.967 26.803-29.94 10.596-29.719-39.548-44.796-89.232-42.324-31.953 1.5896-65.54 12.44-80.834 29.32z" fill-rule="evenodd" stroke-width="3.11"/>
  <path d="m439.09 773.02 36.762-16.836s-21.809-19.383-3.2674-18.552c16.822 0.75361 16.963 4.2809 25.15 6.4926 7.0498 1.9043 11.698-1.154 19.257-2.9948 4.0994-0.99839 6.4406-0.12406 7.5138 1.6065 1.8833 3.0367-2.3265 9.0434-3.4138 11.525-4.1083 9.3765 22.541 20.689-4.1001 16.883-2.2463-0.3209-5.607 3.5396-7.4899 1.4428-10.725-11.944-18.379-7.1975-18.379-7.1975l-41.782 15.134-10.25-7.5036z" fill-rule="evenodd" stroke-width="3.11"/>
  <path d="m286.2 786.03-33.653-11.733s17.179-18.59 1.0892-16.398c-14.597 1.9887-14.385 5.0683-21.315 7.6412-5.9667 2.2153-10.31-0.0768-17.076-1.0792-3.6694-0.54368-5.6279 0.40252-6.3996 1.993-1.3542 2.791 2.8866 7.6828 4.07 9.7553 3.38 5.9192-5.3418 11.061-1.444 12.407 2.0851 0.72005 1.0334 3.2679 6.6208 1.9553 22.883-5.3758 22.012-7.0563 22.012-7.0563l37.869 9.8548 8.2262-7.34z" fill-rule="evenodd" stroke-width="3.11"/>
  <path transform="matrix(1.7754 -.72404 .72798 1.4877 -154.69 473.57)" d="m108 259.36a2.6221 1.5057 0 1 1 -5.2441 0 2.6221 1.5057 0 1 1 5.2441 0z" stroke-width="1.7472"/>
  <path transform="matrix(1.7754 -.72404 .72798 1.4877 -128.17 457.26)" d="m108 259.36a2.6221 1.5057 0 1 1 -5.2441 0 2.6221 1.5057 0 1 1 5.2441 0z" stroke-width="1.7472"/>
  <path transform="matrix(1.9848 .90809 .91089 -1.667 35.285 1088.2)" d="m108 259.36a2.6221 1.5057 0 1 1 -5.2441 0 2.6221 1.5057 0 1 1 5.2441 0z" stroke-width="1.5293"/>
  <path transform="matrix(1.9848 .90809 .91089 -1.667 65.4 1105.6)" d="m108 259.36a2.6221 1.5057 0 1 1 -5.2441 0 2.6221 1.5057 0 1 1 5.2441 0z" stroke-width="1.5293"/>
  <path transform="matrix(1.7916 .1463 -.16486 1.3395 205.55 505.74)" d="m108 259.36a2.6221 1.5057 0 1 1 -5.2441 0 2.6221 1.5057 0 1 1 5.2441 0z" stroke-width="1.9975"/>
  <path transform="matrix(1.8235 .1629 -.17154 1.4589 240.72 473.52)" d="m108 259.36a2.6221 1.5057 0 1 1 -5.2441 0 2.6221 1.5057 0 1 1 5.2441 0z" stroke-width="1.8968"/>
  <path transform="matrix(1.6161 .165 -.15203 1.4777 241.49 478.61)" d="m108 259.36a2.6221 1.5057 0 1 1 -5.2441 0 2.6221 1.5057 0 1 1 5.2441 0z" stroke-width="2.002"/>
  <path transform="matrix(1.3039 -.56663 .53464 1.1643 -56.289 529.48)" d="m108 259.36a2.6221 1.5057 0 1 1 -5.2441 0 2.6221 1.5057 0 1 1 5.2441 0z" stroke-width="2.3046"/>
  <path transform="matrix(1.5837 .64054 .717 -1.1578 159.96 986.82)" d="m108 259.36a2.6221 1.5057 0 1 1 -5.2441 0 2.6221 1.5057 0 1 1 5.2441 0z" stroke-width="2.0538"/>
  <path transform="matrix(2.2074 -.05018 .05484 2.0199 -142.52 315.18)" d="m241.88 253.49a19.923 7.0151 0 1 1 -39.846 0 19.923 7.0151 0 1 1 39.846 0z" stroke-width="1.4724"/>
  <path transform="matrix(2.2074 -.05018 .05484 2.0199 -142.52 315.18)" d="m241.88 253.49a19.923 7.0151 0 1 1 -39.846 0 19.923 7.0151 0 1 1 39.846 0z" stroke-width="1.4724"/>
 </g>
</svg>
