<?xml version="1.0" encoding="UTF-8"?>
<svg viewBox="0 0 445.64609 821.59705" xmlns="http://www.w3.org/2000/svg" xmlns:xlink="http://www.w3.org/1999/xlink">
 <defs>
  <linearGradient id="a">
   <stop offset="0"/>
   <stop stop-opacity="0" offset="1"/>
  </linearGradient>
  <linearGradient id="c" x1="250.15" x2="726.5" y1="318.55" y2="24.055" gradientTransform="matrix(.89229 0 0 1.0057 37.858 33.752)" gradientUnits="userSpaceOnUse" xlink:href="#a"/>
  <linearGradient id="b" x1="259.37" x2="987.61" y1="308.06" y2="16.205" gradientTransform="matrix(.86505 0 0 1.156 37.226 -15.059)" gradientUnits="userSpaceOnUse" xlink:href="#a"/>
 </defs>
 <g transform="translate(-126.98 -83.253)">
  <path d="m214.56 116.66c59.595-30.163 119.19-32.905 178.79-32.905s133.73 2.7421 178.79 32.905v723.92c0 82.264-357.57 87.748-357.57 0v-723.92z" fill="#cfd2ca" fill-opacity=".66452" stroke="#000"/>
  <path d="m237.75 146.04c52.348-27.815 104.7-30.344 157.04-30.344s117.46 2.5287 157.04 30.344v667.57c0 75.86-314.09 80.918-314.09 0v-667.57z" fill="#cfd2ca" fill-opacity=".68627" stroke="#000"/>
  <path d="m281.34 144.76h224.01a34.885 34.885 0 0 1 34.885 34.885v322.82a34.885 34.885 0 0 1 -34.885 34.885h-224.01a34.885 34.885 0 0 1 -34.885 -34.885v-322.82a34.885 34.885 0 0 1 34.885 -34.885" fill="url(#b)"/>
  <path d="m295.6 205.13h197.85a34.885 34.885 0 0 1 34.885 34.885v230.18a34.885 34.885 0 0 1 -34.885 34.885h-197.85a34.885 34.885 0 0 1 -34.885 -34.885v-230.18a34.885 34.885 0 0 1 34.885 -34.885" fill="#fff" stroke="#000"/>
  <path d="m295.95 203.68h197.18a34.885 34.885 0 0 1 34.885 34.885v231.1a34.885 34.885 0 0 1 -34.885 34.885h-197.18a34.885 34.885 0 0 1 -34.885 -34.885v-231.1a34.885 34.885 0 0 1 34.885 -34.885" fill="url(#c)"/>
  <text transform="scale(1.0718 .93297)" x="299.93427" y="199.95157" fill="#fff" font-family="Anklepants" font-size="29.449">
   <tspan x="299.93427" y="199.95157">KUBENS</tspan>
  </text>
  <text transform="scale(.9414 1.0622)" x="395.00455" y="499.59982" fill="#fcf9f9" font-family="Zekton" font-size="20.903">
   <tspan x="395.00455" y="499.59982">C75</tspan>
  </text>
  <path d="m328.49 117.59 28.049-1.0032 34.883-1.0032 39.012 0.54721 22.496 1.2768v5.472l-24.205-2.1888-37.304-0.54721-32.89 1.1856-30.042 1.7328v-5.472z" stroke="#000"/>
  <path d="m273.67 761.32h50.11a12.887 11.276 0 0 1 12.887 11.276v9.9185a12.887 11.276 0 0 1 -12.887 11.276h-50.11a12.887 11.276 0 0 1 -12.887 -11.276v-9.9185a12.887 11.276 0 0 1 12.887 -11.276" fill="#d6cfcf" stroke="#000"/>
  <path d="m368.71 825.76h50.11a12.887 11.276 0 0 1 12.887 11.276v9.9185a12.887 11.276 0 0 1 -12.887 11.276h-50.11a12.887 11.276 0 0 1 -12.887 -11.276v-9.9185a12.887 11.276 0 0 1 12.887 -11.276" fill="#d6cfcf" stroke="#000"/>
  <path d="m458.91 653.39h50.11a12.887 11.276 0 0 1 12.887 11.276v9.9185a12.887 11.276 0 0 1 -12.887 11.276h-50.11a12.887 11.276 0 0 1 -12.887 -11.276v-9.9185a12.887 11.276 0 0 1 12.887 -11.276" fill="#d6cfcf" stroke="#000"/>
  <path d="m458.91 711.38h50.11a12.887 11.276 0 0 1 12.887 11.276v9.9185a12.887 11.276 0 0 1 -12.887 11.276h-50.11a12.887 11.276 0 0 1 -12.887 -11.276v-9.9185a12.887 11.276 0 0 1 12.887 -11.276" fill="#d6cfcf" stroke="#000"/>
  <path d="m368.71 666.28h50.11a12.887 11.276 0 0 1 12.887 11.276v9.9185a12.887 11.276 0 0 1 -12.887 11.276h-50.11a12.887 11.276 0 0 1 -12.887 -11.276v-9.9185a12.887 11.276 0 0 1 12.887 -11.276" fill="#d6cfcf" stroke="#000"/>
  <path d="m462.14 766.15h50.11a12.887 11.276 0 0 1 12.887 11.276v9.9185a12.887 11.276 0 0 1 -12.887 11.276h-50.11a12.887 11.276 0 0 1 -12.887 -11.276v-9.9185a12.887 11.276 0 0 1 12.887 -11.276" fill="#d6cfcf" stroke="#000"/>
  <path d="m367.1 774.21h50.11a12.887 11.276 0 0 1 12.887 11.276v9.9185a12.887 11.276 0 0 1 -12.887 11.276h-50.11a12.887 11.276 0 0 1 -12.887 -11.276v-9.9185a12.887 11.276 0 0 1 12.887 -11.276" fill="#d6cfcf" stroke="#000"/>
  <path d="m370.32 719.44h50.11a12.887 11.276 0 0 1 12.887 11.276v9.9185a12.887 11.276 0 0 1 -12.887 11.276h-50.11a12.887 11.276 0 0 1 -12.887 -11.276v-9.9185a12.887 11.276 0 0 1 12.887 -11.276" fill="#d6cfcf" stroke="#000"/>
  <path d="m272.06 708.16h50.11a12.887 11.276 0 0 1 12.887 11.276v9.9185a12.887 11.276 0 0 1 -12.887 11.276h-50.11a12.887 11.276 0 0 1 -12.887 -11.276v-9.9185a12.887 11.276 0 0 1 12.887 -11.276" fill="#d6cfcf" stroke="#000"/>
  <path d="m272.06 655.01h50.11a12.887 11.276 0 0 1 12.887 11.276v9.9185a12.887 11.276 0 0 1 -12.887 11.276h-50.11a12.887 11.276 0 0 1 -12.887 -11.276v-9.9185a12.887 11.276 0 0 1 12.887 -11.276" fill="#d6cfcf" stroke="#000"/>
  <path d="m454.02 809.32 51.822-0.52864c5.8844 0.29158 17.464-1.1254 11.388 3.7223l-13.101 13.974c-6.4434 7.0523-12.996 15.303-20.136 15.303h-29.974c-7.1393 0-12.887-5.029-12.887-11.276v-9.9185c0-6.2469 5.7475-11.276 12.887-11.276z" fill="#d6cfcf" stroke="#000"/>
  <path d="m329.51 809.32-51.822-0.5286c-5.8844 0.2916-17.464-1.1254-11.388 3.7223l13.101 13.974c6.4434 7.0523 12.996 15.303 20.136 15.303h29.974c7.1393 0 12.887-5.029 12.887-11.276v-9.9186c0-6.2469-5.7475-11.276-12.887-11.276z" fill="#d6cfcf" stroke="#000"/>
  <path d="m272.57 559.53s65.494 0.5787 80.702 0.7028l0.70189 67.347-81.404-1.8526c-10.281 0-18.558-8.1839-18.558-18.35v-29.498c0-10.166 8.2767-18.35 18.558-18.35z" fill="#eae0e0" stroke="#000" stroke-opacity=".27097"/>
  <path d="m519.11 558.86s-66.762-0.7601-81.336 0.7028l0.56546 66.677 80.771-1.1831c10.281 0 18.558-8.1839 18.558-18.35v-29.498c0-10.166-8.2767-18.35-18.558-18.35z" fill="#eae0e0" stroke="#000" stroke-opacity=".27097"/>
  <path d="m313.75 578.67h171.49a22.722 13.332 0 0 1 22.722 13.332 22.722 13.332 0 0 1 -22.722 13.332h-171.49a22.722 13.332 0 0 1 -22.722 -13.332 22.722 13.332 0 0 1 22.722 -13.332" fill="#e1dddd" fill-opacity=".79355" stroke="#000" stroke-opacity=".14194"/>
  <path d="m291.51 592 216.42 0.4734-216.42-0.4734z" fill="#cabcbc" fill-opacity=".42581" fill-rule="evenodd" stroke="#000" stroke-opacity=".27097" stroke-width=".97292"/>
  <path d="m354.44 559.35h84.606v68.419h-84.606v-68.419z" fill="#e1dddd" stroke="#000"/>
  <path d="m364.47 568.93h65.502v50.614h-65.502v-50.614z" fill="#e1dddd" fill-opacity=".79355" stroke="#000" stroke-opacity=".14194"/>
  <path d="m386.31 584.24h22.09v20.548h-22.09v-20.548z" fill="#d5caca" stroke="#000"/>
  <path d="m291.41 568.64h20.58v4.6521h-20.58z" stroke="#000"/>
  <path d="m481.41 568.64h20.58v4.6521h-20.58z" stroke="#000"/>
  <text transform="scale(1.149 .87031)" x="231.72021" y="782.35626" font-family="Sans" font-size="34.438">
   <tspan x="231.72021" y="782.35626">1</tspan>
  </text>
  <text transform="scale(1.149 .87031)" x="318.21188" y="795.75153" font-family="Sans" font-size="34.44">
   <tspan x="318.21188" y="795.75153">2</tspan>
  </text>
  <text transform="scale(1.149 .87031)" x="395.47229" y="780.25073" font-family="Sans" font-size="34.439">
   <tspan x="395.47229" y="780.25073">3</tspan>
  </text>
  <text transform="scale(1.149 .87031)" x="231.9985" y="843.91541" font-family="Sans" font-size="34.439">
   <tspan x="231.9985" y="843.91541">4</tspan>
  </text>
  <text transform="scale(1.149 .87031)" x="320.34027" y="857.17242" font-family="Sans" font-size="34.438">
   <tspan x="320.34027" y="857.17242">5</tspan>
  </text>
  <text transform="scale(1.149 .87031)" x="396.39874" y="847.58832" font-family="Sans" font-size="34.438">
   <tspan x="396.39874" y="847.58832">6</tspan>
  </text>
  <text transform="scale(1.149 .87031)" x="238.18198" y="904.77643" font-family="Sans" font-size="34.438">
   <tspan x="238.18198" y="904.77643">7</tspan>
  </text>
  <text transform="scale(1.149 .87031)" x="319.00476" y="920.14532" font-family="Sans" font-size="34.438">
   <tspan x="319.00476" y="920.14532">8</tspan>
  </text>
  <text transform="scale(1.149 .87031)" x="399.92746" y="910.56042" font-family="Sans" font-size="34.438">
   <tspan x="399.92746" y="910.56042">9</tspan>
  </text>
  <text transform="scale(1.149 .87031)" x="316.58124" y="978.16003" font-family="Sans" font-size="34.438">
   <tspan x="316.58124" y="978.16003">0</tspan>
  </text>
  <text transform="scale(1.2985 .77013)" x="218.29321" y="1075.3844" font-family="Sans" font-size="27.431">
   <tspan x="218.29321" y="1075.3844">#</tspan>
  </text>
  <text transform="scale(1.1151 .89677)" x="401.37277" y="943.7149" font-family="Sans" font-size="48.257">
   <tspan x="401.37277" y="943.7149">*</tspan>
  </text>
  <text transform="scale(1.2042 .83043)" x="322.23892" y="827.48126" font-family="Sans" font-size="20.556">
   <tspan x="322.23892" y="827.48126">abc</tspan>
  </text>
  <text transform="scale(1.2036 .83085)" x="395.95535" y="813.91144" font-family="Sans" font-size="23.763">
   <tspan x="395.95535" y="813.91144">def</tspan>
  </text>
  <text transform="scale(1.2524 .79846)" x="230.61159" y="914.12506" font-family="Sans" font-size="22.659">
   <tspan x="230.61159" y="914.12506">ghi</tspan>
  </text>
  <text transform="scale(1.2371 .80834)" x="318.65643" y="918.22986" font-family="Sans" font-size="27.758">
   <tspan x="318.65643" y="918.22986">jkl</tspan>
  </text>
  <text transform="scale(.86822 1.1518)" x="550.24481" y="638.48962" font-family="Sans" font-size="23.257">
   <tspan x="550.24481" y="638.48962">mno</tspan>
  </text>
  <text transform="scale(.76952 1.2995)" x="389.07523" y="602.77948" font-family="Sans" font-size="21.931">
   <tspan x="389.07523" y="602.77948">pqrs</tspan>
  </text>
  <text transform="scale(1.1362 .88009)" x="341.60526" y="907.06409" font-family="Sans" font-size="27.117">
   <tspan x="341.60526" y="907.06409">tuv</tspan>
  </text>
  <text transform="scale(.6746 1.4824)" x="717.44141" y="534.51123" font-family="Sans" font-size="25.016">
   <tspan x="717.44141" y="534.51123">wxyz</tspan>
  </text>
  <path d="m285.82 671.36v6.4225l17.433-0.17126-0.1194-6.4225-0.11941 6.3368-16.955 0.17126-0.2388-6.3368z" fill="none" stroke="#000" stroke-width=".39818"/>
  <path d="m403.27 833.97v15.745-8.6342h-7.6184 14.729-7.6184l0.5079-7.1106z" fill="none" stroke="#000"/>
  <path d="m473.87 825.33 0.5079-3.5553h4.5711l-0.5079 3.5553v-3.5553l14.729 0.50789 0.5079 5.079 6.6026-0.5079v-9.1421l-5.5869-1.5237-1.5237 5.5869" fill="none" stroke="#000"/>
  <path d="m320.41 815.18c0.1693 1.3544-0.36084 1.8428-0.19154 3.1972-2.9718 0.90546-4.0846 1.5964-6.9399 5.3995-1.2864 1.8526-2.373 7.0691 0.07081 7.0232h14.729c1.9606-0.02767 0.12482-4.8431-0.62042-6.4694-1.7192-4.5071-6.1031-5.6758-6.4984-5.9116-0.33859-1.5237-0.2109-1.7151-0.5495-3.2388z" fill="none" stroke="#000"/>
  <path d="m127.48 839.55z" fill="none" stroke="#000"/>
  <path d="m319.53 830.95v2.5395-2.5395z" fill="none" stroke="#000" stroke-width="4.3332"/>
  <path d="m293.33 602.57c-5.8592 1.211-15.251 9.2954-15.811 15.223 0.88627 3.3199 1.8903 5.1573 5.3674 6.1861l2.2914-3.8933-1.9274-2.2534c0.95935-2.3946 6.8648-8.8323 9.7084-8.5314l2.2933 2.6826c1.038-1.1623 3.0181-1.7855 4.0561-2.9478-1.2076-3.0538-3.3573-5.5686-5.978-6.466z" fill="#23d423" stroke="#000"/>
  <path d="m519.77 606.66c-5.3456-2.6548-17.464-3.1878-21.333 0.0806-1.2156 2.5243-1.4812 4.2183 0.68145 6.8526l4.0666-1.034-0.22619-2.4802c2.1443-0.89617 10.547-1.3818 12.628 0.44505l0.26836 2.9518c1.4946-0.10401 3.4248 0.6635 4.9195 0.55949 0.80707-2.5489 0.55562-5.3159-1.0039-7.3754z" fill="#ec1f29" stroke="#000"/>
  <path transform="matrix(.05985 0 0 .052343 530.01 585.05)" d="m-247.8 640.51a96.214 97.598 0 1 1 -0.00602 -1.0917" fill="none" stroke="#e9100e"/>
  <path d="m508.97 616.8h0.9114v4.0578h-0.9114z" fill="#ff0100" stroke="#e9100e"/>
 </g>
</svg>
