<?xml version="1.0" encoding="UTF-8"?>
<svg viewBox="0 0 1100 900" xmlns="http://www.w3.org/2000/svg" xmlns:xlink="http://www.w3.org/1999/xlink">
 <defs>
  <filter id="aa">
   <feGaussianBlur stdDeviation="2.1789"/>
  </filter>
  <filter id="z">
   <feGaussianBlur stdDeviation="2.1227"/>
  </filter>
  <filter id="y">
   <feGaussianBlur stdDeviation="1.8798"/>
  </filter>
  <filter id="w">
   <feGaussianBlur stdDeviation="12.0085"/>
  </filter>
  <filter id="x" x="-.02138" y="-.11396" width="1.0428" height="1.2279">
   <feGaussianBlur stdDeviation="2.3487"/>
  </filter>
  <linearGradient id="d">
   <stop offset="0"/>
   <stop stop-opacity="0" offset="1"/>
  </linearGradient>
  <linearGradient id="f">
   <stop stop-color="#1a1a1a" offset="0"/>
   <stop stop-color="#1a1a1a" stop-opacity="0" offset="1"/>
  </linearGradient>
  <linearGradient id="j" x1="869.76" x2="879.45" y1="415.2" y2="413.14" gradientUnits="userSpaceOnUse">
   <stop offset="0"/>
   <stop stop-color="#1a1a1a" offset="1"/>
  </linearGradient>
  <linearGradient id="i" x1="879.75" x2="901.48" y1="472.75" y2="469.23" gradientUnits="userSpaceOnUse">
   <stop offset="0"/>
   <stop stop-color="#b3b3b3" offset=".5082"/>
   <stop stop-color="#e6e6e6" offset=".5922"/>
   <stop stop-color="#ccc" offset=".7056"/>
   <stop stop-color="#333" offset="1"/>
  </linearGradient>
  <linearGradient id="h" x1="896.49" x2="881.51" y1="451.32" y2="453.96" gradientUnits="userSpaceOnUse">
   <stop stop-color="#1a1a1a" offset="0"/>
   <stop stop-color="#4d4d4d" offset=".463"/>
   <stop stop-color="#1a1a1a" offset="1"/>
  </linearGradient>
  <linearGradient id="g" x1="866.68" x2="896.49" y1="432.08" y2="424.89" gradientUnits="userSpaceOnUse">
   <stop stop-color="#1a1a1a" offset="0"/>
   <stop stop-color="#ccc" offset="1"/>
  </linearGradient>
  <linearGradient id="u" x1="1809.7" x2="1805.4" y1="234.6" y2="110.67" gradientUnits="userSpaceOnUse">
   <stop stop-color="#999" offset="0"/>
   <stop stop-color="#999" stop-opacity="0" offset="1"/>
  </linearGradient>
  <linearGradient id="s" x1="1954.8" x2="1552.8" y1="186.79" y2="183.47" gradientUnits="userSpaceOnUse">
   <stop stop-color="#ccc" offset="0"/>
   <stop stop-color="#e6e6e6" offset="1"/>
  </linearGradient>
  <linearGradient id="r" x1="1650.8" x2="1887.5" y1="246.94" y2="242.24" gradientUnits="userSpaceOnUse">
   <stop stop-color="#333" offset="0"/>
   <stop stop-color="#1a1a1a" offset="1"/>
  </linearGradient>
  <linearGradient id="q" x1="1710.7" x2="1901.9" y1="368.63" y2="362.99" gradientUnits="userSpaceOnUse">
   <stop stop-color="#4d4d4d" offset="0"/>
   <stop stop-color="#1a1a1a" offset="1"/>
  </linearGradient>
  <linearGradient id="p" x1="1606.8" x2="1909.8" y1="346.78" y2="309.19" gradientUnits="userSpaceOnUse">
   <stop stop-color="#b3b3b3" offset="0"/>
   <stop stop-color="#666" offset=".4446"/>
   <stop stop-color="#4d4d4d" offset=".4804"/>
   <stop stop-color="#2b2828" offset=".9012"/>
   <stop stop-color="#1a1a1a" offset=".9339"/>
   <stop stop-color="#1a1a1a" offset="1"/>
  </linearGradient>
  <linearGradient id="o" x1="1550.7" x2="1910.3" y1="153.99" y2="124.09" gradientUnits="userSpaceOnUse">
   <stop stop-color="#666" offset="0"/>
   <stop stop-color="#2f2f2f" offset=".1193"/>
   <stop stop-color="#4d4d4d" offset=".6115"/>
   <stop stop-color="#1a1a1a" offset="1"/>
  </linearGradient>
  <linearGradient id="l" x1="1872" x2="1858.2" y1="629.66" y2="553.57" gradientUnits="userSpaceOnUse">
   <stop stop-color="#1a1a1a" offset="0"/>
   <stop stop-color="#808080" offset="1"/>
  </linearGradient>
  <linearGradient id="c" x1="1891.9" x2="1885.2" y1="625.15" y2="584.04" gradientUnits="userSpaceOnUse">
   <stop offset="0"/>
   <stop stop-color="#ccc" offset="1"/>
  </linearGradient>
  <linearGradient id="e" x1="1857.6" x2="1859" y1="584.34" y2="613.99" gradientUnits="userSpaceOnUse">
   <stop stop-color="#fff" offset="0"/>
   <stop stop-color="#fff" stop-opacity="0" offset="1"/>
  </linearGradient>
  <linearGradient id="k" x1="1841.2" x2="1841.2" y1="937.4" y2="932.1" gradientTransform="matrix(.75877 -.1382 .08854 .99005 486.37 -60.322)" gradientUnits="userSpaceOnUse">
   <stop offset="0"/>
   <stop stop-color="#ccc" offset=".4534"/>
   <stop stop-color="#ccc" offset=".7326"/>
   <stop stop-opacity=".1882" offset=".8059"/>
   <stop stop-color="#1a1a1a" offset="1"/>
  </linearGradient>
  <linearGradient id="v" x1="1542.6" x2="1543.4" y1="204" y2="172.31" gradientUnits="userSpaceOnUse" xlink:href="#d"/>
  <linearGradient id="b" x1="1487.3" x2="1487.5" y1="222.06" y2="201.88" gradientUnits="userSpaceOnUse" xlink:href="#d"/>
  <linearGradient id="t" x1="923.19" x2="923.6" y1="306.42" y2="286.55" gradientUnits="userSpaceOnUse" xlink:href="#f"/>
  <linearGradient id="a" x1="503.02" x2="503.2" y1="273.74" y2="253.56" gradientTransform="matrix(.99697 -.07774 .06342 .8133 1258.4 470.76)" gradientUnits="userSpaceOnUse" xlink:href="#d"/>
  <linearGradient id="n" x1="1824.3" x2="1816.4" y1="626.54" y2="605.78" gradientUnits="userSpaceOnUse" xlink:href="#f"/>
  <linearGradient id="m" x1="1814.8" x2="1812.5" y1="650.99" y2="624.56" gradientUnits="userSpaceOnUse" xlink:href="#d"/>
 </defs>
 <g transform="translate(-944.35 211.42)" filter="url(#w)" opacity=".832">
  <path d="m1721.4688,553.75-7.3126,3.6875-6.4062,3.5-5.5312,3.3125-2.9688,2-1.6875,1.125-9.0625,3.75-.125.0625-.4688.1875-5.4062,10.90625c-.01-.013-.026-.0183-.031-.0312l-12.4376,1.46875c.4584.21688.9702,1.14802 1.5,2.5625 .2992.79863.6032,1.76587.9063,2.875-.3087-1.08762-.6029-2.10875-.9063-2.875-.608-1.53607-1.2179-2.35555-1.7187-2.28125-.4006.0594-.6886.67982-.9063,1.78125-.2817-.80565-.5625-1.60791-.875-2.40625l-12.4374,1.46875c.4583.21688.9701,1.14802 1.5,2.5625-.6081-1.53607-1.1868-2.35555-1.6876-2.28125-.7433.11028-1.1732,2.26181-1.2812,5.625l-6.0625.5625c-.6055-2.09176-1.2933-4.17343-2.0937-6.21875l-12.4376,1.46875c.4593.21732.9691,1.17431 1.5,2.59375-.608-1.53607-1.1867-2.3868-1.6874-2.3125-.4387.0651-.781.85477-1,2.15625-.3172-.92199-.6742-1.83754-1.0313-2.75l-12.4375,1.4375c.452.21387.978,1.15088 1.5,2.53125-.5981-1.49198-1.1943-2.32317-1.6875-2.25-.8193.12155-1.2352,2.70455-1.2813,6.6875l-2.0937.125c-.9142-2.37671-2.0095-4.7253-3.3125-7.03125l-19.0938,1.96875c.2878.0825.603.29021.9063.59375-.3067-.24184-.5914-.34871-.875-.3125-2.2688.2897-2.8143,9.80756-1.1875,21.25s4.7937,20.4772 7.0625,20.1875c.2482-.0317.4817-.19473.6875-.4375l19.2812-1.625c.1865-1.99498.3438-3.99043.4376-5.96875l1.6562-.1875c1.0265,3.95329 2.1031,6.37379 2.9375,6.25 .1656-.0246.303-.16091.4375-.375l12.625-1.15625c.018-.52531.017-1.03809.031-1.5625 .5543,1.30417 1.1027,2.03697 1.5626,1.96875 .1737-.0258.3292-.1723.4687-.40625l12.5625-1.125c.07-2.03805.1187-4.07063.125-6.09375l5.9062-.625c1.0458,4.09721 2.1175,6.65755 2.9688,6.53125 .1738-.0258.3292-.1723.4688-.40625l12.5937-1.125c.013-.3865.02-.77023.031-1.15625 .4905,1.05089.9324,1.62352 1.3437,1.5625 .1738-.0258.3292-.1723.4687-.40625l12-1.0625c.042.31531.082.58442.125.90625l8.4691,5.56245h.031 .125l10.2813.96875 1.1875.34375 4.1875,1.25 6.25,1.53125 7.1875,1.375 8.0625,1.28125 7.4375-3.375 6.5-3.25 5.625-3.09375 4.7188-3 3.8437-2.875 1.4063-3.53125 4.3124-7.65625 6.3126,6.21875 4.3124-7.65625 6.3438,6.21875 4.3125-7.65625 6.3125,6.21875 4.2188-7.5 .1874,1.1875c.037-.38282.061-.77453.094-1.15625l6.125,6.03125 5.3438-.71875 5.3124-.71875 5.3126-.71875 6.9062-4.46875 5.875-4.34375 4.8438-4.1875 6.8437-6.8125 3.7187-4.03125c.048-.11221.081-.23206.125-.34375l4.4376-1.03125c0-1.2004-.038-2.38528-.125-3.59375l34.7187-6.34375 7.4687-1.34375c.01-.0207-.01-.042 0-.0625l.375-.0625c.865-2.84749.1633-4.46128-.8124-5.875l-.125-.25h-.063l-.062-.0937-1.0313.1875 .062.0937-5.2188.96875-.062-.0937-1.0626.1875 .063.0937-.5313.0937c-.017-.0236-.045-.0389-.062-.0625l-1.0312.1875c.013.0206.018.0419.031.0625l-33.8438,6.1875c-.4472-1.3083-1.0377-2.62583-1.8437-3.96875l-4.0937.90625-3.8438-2.53125-8.5625-5-5.8437-2.90625-6.9063-2.78125-7.9375-2.6875-2.5312.25-6.6876-.53125-3.9374,1.5-2.0626.21875h-.875c.017.0318.045.0624.063.0937h-.1563l-4.375,7.4375-6.4063-6.4375-4.375,7.4375-6.4062-6.40625-4.375,7.4375-6.4062-6.4375-4.2188,7.875-.031-.0312c-.045-.093-.08-.18832-.125-.28125l.031.1875-6.1562-5.875-2.2813-2.8125-4.4063-1.5-5.3124-1.375-6.1876-1.25-2.8437-.4375c-3.189-.7006-6.3125-1.40625-6.3125-1.40625h-4.0938l-1.8124-.21875zm-67.1563,44.8125c.1604,2.40609.4135,5.02169.75,7.75 .2651,2.14953.5809,4.15649.9063,6.09375l-4.5313.4375c-.043-.84568-.097-1.68963-.1563-2.53125l.8438-.0937-1.1875-6.625-.3125.0312-.125-.78125c0-.0322-.027-.0616-.031-.0937v-.0937c-.1756-1.21576-.3702-2.42068-.5938-3.625l4.4375-.46875zm-36.6563,3.96875h.063c.01.0823-.01.16724 0,.25l-.063-.25zm-18.1562,4.6875c.1513.86626.3054,1.72543.4375,2.625 .017.11674.015.22741.031.34375-.1453-1.02165-.3009-1.99032-.4688-2.96875zm19.7188,7.875c.023.13731.071.27023.094.40625h-.062c0-.13582-.026-.27055-.031-.40625z"/>
  <path d="m1432.3438-128.71875c-16.5837.47819-29.8547,8.39842-34.5,35.5625l-11.1563,44.25c1.1032,35.6583.5586,72.55632.9063,108.78125-9.4551,1.00802-18.7145,2.98785-27.625,6.71875v.3125l-5.75,4.75-.125,5.96875-5.5626.125c-.4025-2.24796-.8556-4.49936-1.4062-6.71875l-12.5.59375c.2843.19943.5646.72316.8438,1.5625 .093.27978.1898.59374.2812.9375 .058.21954.099.5368.1562.78125-.4868-1.93522-.9949-3.01183-1.5-2.96875-.4006.03417-.7614.78915-1.0624,2.09375-.2174-1.00668-.4393-1.99928-.6876-3l-12.5312.59375c.2843.19943.5959.72316.875,1.5625 .093.27978.1586.59374.25.9375 .052.19377.1054.47429.1562.6875-.4789-1.86882-.9729-2.91729-1.4687-2.875-.748.06381-1.3494,2.66565-1.7187,6.75l-6.0938.125c-.4406-2.60893-.956-5.21037-1.5938-7.78125l-12.5312.59375c.2843.19943.5959.72316.875,1.5625 .093.27978.1586.59374.25.9375 .052.19377.1054.47429.1562.6875-.4789-1.86882-.9729-2.91729-1.4687-2.875-.4475.03817-.8658.9901-1.1875,2.59375-.2472-1.17256-.4924-2.33549-.7812-3.5l-12.5.59375c.2842.19943.5646.72316.8437,1.5625 .093.27978.1898.59374.2813.9375 .058.21954.099.5368.1562.78125-.4868-1.93522-.995-3.01183-1.5-2.96875-.8296.07076-1.489,3.19589-1.8438,8.09375l-2.0624-.0625c-.728-3.00241-1.6263-5.98485-2.75-8.9375l-19.1876.59375c.2629.12021.5197.39038.7813.75-.2694-.28598-.5445-.45367-.8125-.4375-2.2845.13785-3.5136,11.73587-2.7812,25.875s3.153,25.4816 5.4374,25.34375c.24-.0145.4714-.18098.6876-.4375l19.375-.1875c.3412-2.4227.6588-4.83885.9062-7.25l1.6875-.0625c.7161,4.92976 1.596,8.00928 2.4375,7.9375 .1701-.0145.3155-.17997.4688-.4375l12.6562-.1875c.059-.64717.1008-1.29108.1562-1.9375 .4534,1.66387.94,2.60227 1.4063,2.5625 .1701-.0145.3155-.17997.4687-.4375l12.6563-.1875c.2283-2.48592.4301-4.96378.5937-7.4375l5.9376-.1875c.7238,5.10268 1.6106,8.3232 2.4687,8.25 .1701-.0145.3155-.17997.4687-.4375l12.6563-.1875c.041-.44845.054-.89565.094-1.34375 .4034,1.30369.8397,2.00375 1.25,1.96875 .1701-.0145.3156-.17997.4688-.4375l12.6562-.1875c.2543-2.76875.4521-5.52786.625-8.28125l4.4688-.1875 1.5625,8.25h1.3125c10.8863,3.78285 21.6092,8.8119 32.9375,9.5 1.425,18.18104 3.5712,35.83747 6.8125,52.65625l4.0938,4.375 .375-.0625c4.0573,4.22569 10.8132,5.37748 18.625,5.3125l126.0624-1.65625 13.9063,85.375 35.9687,20.25 5.9376-.0625c.5966,3.2739 1.2289,6.52959 1.9062,9.78125-.083.23918-.1277.45655-.094.6875 .1806,1.22862 2.0771,2.07671 4.9688,2.5l3.9062,39.0625 .094,1 6.9375,52.96875c11.8872,15.06442 23.6459,5.79306 25.9063-4.03125l-6.4376-54.5625-4.875-40.71875c.3213.26296.5146.57732.5626.90625 .046.31837-.033.66582-.25,1 1.6831-1.00792 2.5795-2.0338 2.4374-3-.056-.38454-.2571-.7507-.625-1.0625-.015-1.60869-.062-3.20293-.094-4.8125l97.9063-.8125c.5843,2.36649 1.1908,4.70844 1.8124,7.0625-.063.23309-.1067.46774-.062.6875 .2447,1.216 2.1892,1.94782 5.0937,2.21875l5.9687,38.78125 .1563,1.03125 9.7187,52.5c12.6655,14.41635 23.9174,4.55488 25.6563-5.375l-9.2813-53.90625-.031-.25-7.0312-40.40625c.345.24851.5585.54332.625.875 .063.31548-.019.6548-.2188,1 1.6277-1.09531 2.5052-2.16762 2.3125-3.125-.078-.38722-.324-.73605-.7187-1.03125-.1971-3.18001-.4228-6.35123-.7188-9.53125l33.25-11.6875-.1562-1.1875 .031.0312-12.9062-92.40625 38.2812-25.5c4.093-11.85591 6.1063-25.72761 5.3125-41.09375l.1875,1.21875 .1875-1.40625-6.0937-37.71875c-.034-.0151-.06-.04746-.094-.0625l-.3438-2.03125-45.9062-177.03125c-3.5214-11.91306-10.6716-11.18284-18.2188-11.96875l-325.4687-15.3125c-1.1336-.0308-2.2382-.0319-3.3437,0zm-147.4376,204.90625c.1056.53574.2116,1.13552.3126,1.75-.1028-.59177-.2055-1.23732-.3126-1.75zm14.6876,0c.1054.53546.2115,1.1359.3124,1.75-.1027-.59177-.2054-1.23732-.3124-1.75zm22.125,0c.143.7265.303,1.53702.4374,2.40625-.1388-.85285-.2901-1.70091-.4374-2.40625zm14.4687,0c.1055.53574.2115,1.13552.3125,1.75-.1028-.59177-.2054-1.23732-.3125-1.75zm17.7813,11-.3126,17.34375-3.2187.0625c.1049-5.82216-.051-11.58336-.5937-17.28125l4.125-.125zm-36.1563,1.0625c-.027,2.96138 0,6.18839.125,9.5625 .097,2.64493.2332,5.13845.4063,7.53125l-4.5313.125c.024-1.04498.056-2.08338.062-3.125l.8438-.0312-.6563-8.21875h-.3125l-.062-.9375c-.082-1.58569-.2071-3.17474-.3437-4.75l4.4687-.15625zm-36.8437,1.375h.031c-.0002.10335 0,.20858 0,.3125-.012-.10401-.019-.20854-.031-.3125zm74.0312.375 4.9688.28125v.03125l-4.9688-.3125zm-92.625,2.15625c.1345,1.52876.254,3.10397.3438,4.71875 .1072,1.92902.1566,3.78282.1874,5.59375 .029,1.67367.033,3.2767 0,4.8125 .025-1.53776.031-3.1426 0-4.8125s-.096-3.38886-.1874-5.15625-.2024-3.493-.3438-5.15625zm19.1562,13.125c.01.11524.023.22923.031.34375h-.031v-.34375zm459.25,198.8125 .375,2.5c-.5323-.27748-.8849-.61252-.9687-1.03125-.092-.45864.1421-.95394.5937-1.46875zm-132.1874,4.0625 .25,2.53125c-.5132-.30434-.8449-.67296-.9063-1.09375-.068-.46557.1723-.94432.6563-1.4375z"/>
  <path d="m1362.3 90.835c-56.162-3.7486-113.2 6.353-164.66 29.162-29.159 12.925-56.738 30.035-79.28 52.601-26.192 26.221-45.333 60.262-50.157 97.009-2.4122 18.373-1.2316 37.264 3.9547 55.054s14.413 34.451 27.124 47.935c18.047 19.144 43.104 31.53 69.273 34.241s53.233-4.2741 74.822-19.312c20.29 0.91563 40.209 8.7039 55.738 21.794s26.577 31.403 30.914 51.245c4.6172 21.126 1.7543 43.055-0.073 64.602s-2.4456 44.061 6.1996 63.883c7.873 18.051 23.065 32.39 40.692 41.172s37.561 12.279 57.254 12.242c39.386-0.0747 77.275-13.717 115.62-22.712 6.2717-1.4712 12.572-2.8202 18.889-4.0805 33.866-6.7563 68.241-10.96 102.74-12.565" fill="none" stroke="#000" stroke-linecap="round" stroke-linejoin="round" stroke-width="29.197"/>
 </g>
 <g transform="matrix(1.1679 0 0 1.1679 -1386.1 45.171)">
  <path d="m1948 611.64 41.277-7.5181c0.6591 1.3128 1.1966 2.7397 0.478 5.3448l-41.277 7.5181z" fill="url(#k)"/>
  <path d="m1947 608.33 4.0476-0.92871c2.4374 4.0612 2.6819 7.9108 2.6931 11.738l-4.0476 0.92871c1.1099-4.1667 0.1-8.0651-2.6931-11.738z"/>
  <path d="m1806.8 616.8 4.6346-9.3315 8.2563-3.4308 3.9839-2.6887 4.7388-2.8385 5.4982-2.9892 6.2623-3.1408 6.8243 0.81962 6.0591 0.93923 5.2985 1.0582 4.5424 1.1764 3.7907 1.294 1.9552 2.4013 5.3657 5.1398 3.616-6.7328 5.4912 5.5007 3.7415-6.3719 5.4824 5.5019 3.7504-6.3731 5.4732 5.5031 3.7594-6.3743 4.6164-0.43559 4.6164-0.4356 4.6164-0.43558 6.7986 2.2965 5.9114 2.3921 5.0193 2.4883 7.3141 4.2868 4.0193 2.6316c2.0313 3.6769 3.385 7.4454 1.5751 11.642l-3.1658 3.4556-5.8802 5.8411-4.1487 3.5886-5.0279 3.7076-5.9023 3.8259-4.5537 0.61607-4.5536 0.61607-4.5535 0.61605-5.4105-5.3227-3.6967 6.5548-5.4196-5.3214-3.6876 6.5536-5.4285-5.3202-3.6788 6.5524-5.4285-5.3202-3.6787 6.5524-1.2014 3.0173-3.2866 2.4629-4.0465 2.5657-4.8111 2.6691-5.58 2.7732-6.3537 2.8778-6.9157-1.0826-6.1389-1.1877-5.3665-1.2922-4.5988-1.396-8.9288-0.81022-7.2566-4.7619c-2.0246-14.964-2.2873-21.56-4.3119-36.524z" fill="url(#l)"/>
  <path d="m1873.9 604.95c5.4089 11.106 7.0464 23.155 5.8138 35.921" fill="url(#c)" stroke="#000" stroke-linecap="round" stroke-linejoin="round" stroke-width="3.5"/>
  <path d="m1883.3 604.12c5.4089 11.106 7.0464 23.155 5.8138 35.921" fill="url(#c)" stroke="#000" stroke-linecap="round" stroke-linejoin="round" stroke-width="3.5"/>
  <path d="m1892.2 603.08c5.4089 11.106 7.0464 23.155 5.8138 35.921" fill="url(#c)" stroke="#000" stroke-linecap="round" stroke-linejoin="round" stroke-width="3.5"/>
  <path d="m1900.9 602.46c5.4089 11.106 7.0464 23.155 5.8138 35.921" fill="url(#c)" stroke="#000" stroke-linecap="round" stroke-linejoin="round" stroke-width="3.5"/>
  <path d="m1812 607.25-0.5 0.21875-4.6563 9.3438c2.0246 14.964 2.2879 21.536 4.3125 36.5l7.2812 4.7812 0.25 0.0312c1.9997-6.1648 2.8566-14.611 2.0626-23.812-1.013-11.738-4.4503-21.756-8.75-27.062z" fill="#999" opacity=".5492"/>
  <path d="m1821.2 603.06-1.4374 0.96875-8.25 3.4375-4.6563 9.3438c2.0246 14.964 2.2879 21.536 4.3125 36.5l7.2812 4.7812 8.9063 0.8125 1.0313 0.3125c2.9223-6.2186 4.3265-16.161 3.375-27.188-1.1527-13.357-5.43-24.474-10.563-28.969z" fill="url(#n)" opacity=".5492"/>
  <path d="m1812 607.25-0.5 0.21875-4.6563 9.3438c2.0246 14.964 2.2879 21.536 4.3125 36.5l7.2812 4.7812 0.25 0.0312c1.9997-6.1648 2.8566-14.611 2.0626-23.812-1.013-11.738-4.4503-21.756-8.75-27.062z" fill="url(#m)" opacity=".5492"/>
  <path transform="matrix(.65264 -.09683 .1002 .81247 1472.6 474.92)" d="m463.72 253.12c0 12.077-1.7044 21.867-3.8068 21.867s-3.8068-9.7901-3.8068-21.867 1.7043-21.867 3.8068-21.867 3.8068 9.7901 3.8068 21.867z" fill="#333"/>
  <path transform="matrix(.65264 -.09683 .1002 .81247 1460.3 475.88)" d="m463.72 253.12c0 12.077-1.7044 21.867-3.8068 21.867s-3.8068-9.7901-3.8068-21.867 1.7043-21.867 3.8068-21.867 3.8068 9.7901 3.8068 21.867z" fill="#333"/>
  <path transform="matrix(.65264 -.09683 .1002 .81247 1441.4 477.35)" d="m463.72 253.12c0 12.077-1.7044 21.867-3.8068 21.867s-3.8068-9.7901-3.8068-21.867 1.7043-21.867 3.8068-21.867 3.8068 9.7901 3.8068 21.867z" fill="#333"/>
  <path transform="matrix(.65264 -.09683 .1002 .81247 1428.9 478.33)" d="m463.72 253.12c0 12.077-1.7044 21.867-3.8068 21.867s-3.8068-9.7901-3.8068-21.867 1.7043-21.867 3.8068-21.867 3.8068 9.7901 3.8068 21.867z" fill="#333"/>
  <path transform="matrix(.92402 -.11799 .11534 .81129 1278.5 490.06)" d="m463.72 253.12c0 12.077-1.7044 21.867-3.8068 21.867s-3.8068-9.7901-3.8068-21.867 1.7043-21.867 3.8068-21.867 3.8068 9.7901 3.8068 21.867z" fill="#333"/>
  <path d="m1530.7 175.51-4.9375 4.0625-0.094 5.6562 4.7812-0.46875 0.25-9.25zm-5.0625 11.625-0.4062 24.656 2.125 11.156h1.125c-0.3458-0.12011-0.6851-0.25808-1.0313-0.375l2.75-18.281 0.5-8.75-4.25-0.25-0.8125-8.1562z" fill="#1a1a1a"/>
  <path transform="matrix(.65819 -.05614 .03673 1.0025 1197.6 -26.18)" d="m463.72 253.12c0 12.077-1.7044 21.867-3.8068 21.867s-3.8068-9.7901-3.8068-21.867 1.7043-21.867 3.8068-21.867 3.8068 9.7901 3.8068 21.867z" fill="#333"/>
  <path transform="matrix(.65819 -.05614 .03673 1.0025 1185.2 -26.18)" d="m463.72 253.12c0 12.077-1.7044 21.867-3.8068 21.867s-3.8068-9.7901-3.8068-21.867 1.7043-21.867 3.8068-21.867 3.8068 9.7901 3.8068 21.867z" fill="#333"/>
  <path transform="matrix(.65819 -.05614 .03673 1.0025 1166.2 -26.18)" d="m463.72 253.12c0 12.077-1.7044 21.867-3.8068 21.867s-3.8068-9.7901-3.8068-21.867 1.7043-21.867 3.8068-21.867 3.8068 9.7901 3.8068 21.867z" fill="#333"/>
  <path transform="matrix(.65819 -.05614 .03673 1.0025 1153.6 -26.18)" d="m463.72 253.12c0 12.077-1.7044 21.867-3.8068 21.867s-3.8068-9.7901-3.8068-21.867 1.7043-21.867 3.8068-21.867 3.8068 9.7901 3.8068 21.867z" fill="#333"/>
  <path transform="matrix(.9304 -.05614 .05192 1.0025 1002.8 -26.18)" d="m463.72 253.12c0 12.077-1.7044 21.867-3.8068 21.867s-3.8068-9.7901-3.8068-21.867 1.7043-21.867 3.8068-21.867 3.8068 9.7901 3.8068 21.867z" fill="#333"/>
  <path d="m1933.7 221.53 0.7082-5.6659-5.3118-32.933-39.307-151.56c-3.0152-10.201-9.1189-9.5965-15.581-10.269l-278.69-13.102c-15.531-0.42218-28.159 5.6441-32.402 30.454l-9.5612 37.891c2.0813 67.276-2.6638 139.67 8.9271 199.81l3.5056 3.756 225.36-47.075z" fill="url(#o)"/>
  <path d="m1934.3 216.31-316-5.008c-17 2.7459-36.025-6.1583-48.077 25.04l-6.0096 23.037c-5.1236 21.07 4.6183 25.151 18.029 25.04l305.49-4.0064 42.067-28.045c3.5834-10.38 5.3131-22.546 4.5072-36.057z" fill="url(#r)"/>
  <path d="m1897.4 179.01-166.76-2.0358c12.428-93.524 129.84-72.448 166.76 2.0358z" fill="#1a1a1a"/>
  <path d="m1897.4 179.01-166.76-1.7629c12.374-76.528 129.8-59.212 166.76 1.7629z" fill="url(#u)"/>
  <path d="m1619.2 215.81-0.8764 4.6324c-11.421-0.62979-23.614-2.3496-25.666 10.266l-8.2631 0.1252c0.3216-19.108 19.235-14.977 34.805-15.024z" fill="#1a1a1a"/>
  <path d="m1571.5 266.14 8.3884 0.3756c-4.0633 10.912 5.9445 10.098 15.525 9.6404l-0.5008 6.3852c-10.646-2.4607-28.716 2.9304-23.412-16.401z" fill="#1a1a1a"/>
  <path d="m1608.6 223.91 69.406 1.0328c1.1523 0.0498 2.1542 0.0929 3.0216 0.14018 2.9798 0.24688 4.4856 3.6177 3.994 5.0047-0.2817 0.74434-0.6023 1.6052-0.9329 2.6023l-11.576 34.914c-1.6297 2.8993-3.5828 3.2669-6.5916 4.2294l-73.143-0.87859c-3.0723-1.5112-3.0975-2.3873-3.3404-5.5766l11.41-36.357c2.0197-2.8893 4.6295-3.7819 7.752-5.1114z" fill="#1a1a1a"/>
  <path transform="matrix(1.2715 -.25128 .28705 1.113 648.1 143.95)" d="m933.81 305.52c0 3.0803-4.3996 5.5774-9.8268 5.5774s-9.8268-2.4971-9.8268-5.5774 4.3996-5.5774 9.8268-5.5774 9.8268 2.4971 9.8268 5.5774z" fill="#333" opacity=".7787"/>
  <path d="m1690.3 247.14 47.17-19.944 130.67 6.3741 25.142 14.165 14.873 106.59-51.347 18.06-123.94 1.0624-30.808-17.352-16.215-99.609c0.6043-3.8037 2.2213-6.3868 4.457-9.3453z" fill="url(#q)"/>
  <path d="m1737.5 227.19-47.162 19.937c-2.5799 2.6495-3.3583 5.8803-4.4916 9.2962l16.247 99.673 0.7813 0.4375 49.5-18.156-0.094-0.6875 134.28-0.375-0.031-0.0937 21.531 16.125-14.75-105.62-25-14.062 12.031 69.469-12.656-69.594-130.19-6.3438z" fill="url(#p)"/>
  <path d="m1601.5 176.43c-16.094 0.7544-30.77 6.444-37.531 24.531-5.6666 7.6052-6.5658 20.119-6.9375 33.156 0.014 0.1672 0.017 0.3329 0.031 0.5 0.3941-12.201 1.4037-23.832 6.9063-30.969 6.7614-17.478 21.437-22.958 37.531-23.688l316.03 4.8125c4.3894 0.47492 8.2676 1.6643 11.875 3.2188l5.0625 30.25 0.1562-1.2188-5.2187-32.281c-3.6074-1.6086-7.4856-2.821-11.875-3.3125l-316.03-5z" fill="#1a1a1a"/>
  <path d="m1532.6 195.99c-48.09-3.2098-96.927 5.4398-140.99 24.971-24.968 11.067-48.583 25.718-67.884 45.04-22.428 22.452-38.816 51.6-42.947 83.065-2.0655 15.732-1.0546 31.907 3.3862 47.14s12.341 29.499 23.225 41.045c15.453 16.393 36.908 26.998 59.316 29.319s45.582-3.6597 64.067-16.536c17.374 0.78401 34.429 7.4528 47.726 18.661s22.757 26.889 26.47 43.879c3.9535 18.089 1.5022 36.866-0.063 55.316-1.565 18.45-2.094 37.728 5.3085 54.7 6.7413 15.456 19.75 27.734 34.843 35.253s32.162 10.514 49.024 10.482c33.724-0.064 66.167-11.746 99.001-19.447 5.3702-1.2597 10.765-2.4148 16.174-3.494 28.998-5.7851 58.432-9.3848 87.97-10.759" fill="none" stroke="#1a1a1a" stroke-linecap="round" stroke-linejoin="round" stroke-width="25"/>
  <path d="m1563.4946,652.91386c4.2378,3.75059 10.1943,5.47486 15.7803,4.56798 .8348-.13553 1.6627-.32655 2.5062-.38788s1.7182.0146 2.4771.38788c.726.35711 1.3157.96998 2.0763,1.24581 .5302.19228 1.1145.20632 1.6688.10254s1.082-.32119 1.5826-.58088c1.0013-.51939 1.9169-1.21456 2.9777-1.59801 .9867-.35664 2.0567-.42618 3.1042-.36854s2.0839.23834 3.1249.36854c2.754.34443 5.5502.33471 8.3054,0 1.8075-.21958 3.5953-.57796 5.3985-.83054 3.0288-.42426 6.1269-.54698 9.136,0 1.7958.32644 3.5742.89145 5.3985.83054 2.2314-.0745 4.3314-1.08438 6.19-2.32146s3.549-2.71695 5.4376-3.9076c1.236-.77924 2.5603-1.43397 3.9675-1.82732s2.902-.51938 4.3379-.24904c.7763.14614 1.5308.40611 2.3153.49873 .3922.0463.792.05 1.1799-.024s.7645-.2279 1.0728-.47478c.3059-.24494.5357-.57238.8305-.83054 .4842-.42401 1.1235-.64015 1.7633-.7093s1.2862-.001 1.924.085 1.2759.19067 1.9194.19479 1.3007-.0975 1.8682-.40101c.3584-.19168.6704-.45756.9974-.69882s.6812-.46344 1.0789-.54699c.3401-.0714.6924-.0375 1.0381-.002s.6976.0707 1.0383.002c.5392-.1079.9957-.46507 1.3758-.86246s.7072-.84586 1.1158-1.2139c.7971-.71794 1.8627-1.08544 2.9294-1.19974s2.1439.007 3.205.1643 2.1211.35043 3.1934.38053 2.1708-.11122 3.1303-.5909c.672-.33594 1.2529-.82497 1.8391-1.29475s1.1957-.93099 1.8984-1.19687c1.1798-.44642 2.4957-.29833 3.7337-.0566s2.4837.57261 3.7411.47188c1.4097-.11293 2.7401-.76347 4.1527-.83055 1.2541-.0596 2.484.34459 3.7375.41528 1.7902.10095 3.6084-.51004 4.9832-1.66109 .7641-.63975 1.3864-1.42921 2.0868-2.13815s1.5148-1.35611 2.4812-1.59929c.9443-.23763 1.9355-.0682 2.9069,0 2.7344.19205 5.4547-.43133 8.1135-1.09842s5.341-1.38711 8.0821-1.3932c2.3608-.005 4.7563.51808 7.0596,0 1.7935-.40342 3.3834-1.40797 4.9501-2.36969s3.1999-1.91589 5.0164-2.19829c1.7809-.27686 3.5999.11479 5.3985,0 2.5883-.16519 4.9822-1.36 7.4749-2.07635 2.8243-.81167 5.8422-1.00692 8.7207-.41527 .9623.19779 1.9269.4837 2.9069.41527 .9971-.0696 1.9326-.50264 2.7973-1.00414s1.6884-1.08026 2.6012-1.48749c1.2809-.57143 2.6999-.78556 4.1025-.78143s2.7957.22001 4.1743.47775c2.7574.51549 5.5711,1.20328 8.334.71895 .5808-.10181 1.1584-.25546 1.748-.24987 .2948.003.5914.0464.8662.1532s.5274.2789.708.51194c.2852.36809.3701.86978.2746,1.32552s-.3589.86572-.6967,1.18622c-.6756.64101-1.6043.92226-2.4848,1.2257-4.6495,1.60233-8.8965,4.36253-13.704,5.39852-2.1831.47045-4.4262.5714-6.6443.83054-8.6718,1.01311-17.0168,4.44998-25.7468,4.56798-4.7124.0637-9.4262-.84696-14.1192-.41527-6.0353.55516-11.6244,3.28179-17.4414,4.98325-1.5148.44308-3.0489.81735-4.5679,1.24581-2.9969.84531-6.0324,1.91347-9.136,1.66109-.4863-.0395-.9699-.11158-1.4572-.13767s-.9831-.005-1.4497.13767c-.5355.16374-1.0098.47981-1.4687.80073s-.9175.65433-1.4382.86035c-.5594.22131-1.1662.28603-1.7522.42203-.293.068-.5832.15467-.8539.28569s-.5224.30794-.7161.53809c-.1611.19151-.2787.41499-.4004.63369s-.251.4373-.4301.61212c-.2057.20078-.4701.33532-.747.41238s-.5668.0988-.8542.0942c-.5748-.009-1.1469-.12173-1.721-.0913-1.0621.0563-2.0332.59253-2.9416,1.14567s-1.8271,1.14839-2.8722,1.34595c-.9544.18043-1.9357.0136-2.9069,0-1.6342-.023-3.2418.38914-4.8078.85706s-3.1242.99702-4.7434,1.21929c-2.5013.34335-5.0355-.0582-7.5537-.23913s-5.1654-.11309-7.396,1.06968c-.7493.39734-1.431.91071-2.1669,1.33244s-1.553.75631-2.4011.74391c-.2785-.004-.555-.0455-.8329-.0652s-.562-.0168-.8282.0652c-.2374.0731-.4528.20745-.6404.37022s-.3487.35381-.4987.55183c-.2998.39604-.5626.8281-.9372,1.1543-.3536.30787-.7923.50651-1.2456.62624s-.9229.16387-1.391.1904c-.9361.0531-1.9071.0442-2.762.42918-.4955.22314-.926.56878-1.3221.94084s-.7637.77411-1.1695,1.13551c-1.5959,1.42113-3.7056,2.14257-5.8138,2.49163-4.5215.74862-9.2084-.0612-13.7039.83054-3.4726.68886-6.659,2.35813-9.9748,3.59868-1.6579.62027-3.3646,1.13736-5.1204,1.36207s-3.568.14943-5.2531-.39277c-.8368-.26924-1.6327-.64958-2.4469-.98083s-1.6596-.61632-2.5363-.68026c-.9676-.0706-1.9455.13032-2.9069,0s-1.8427-.58162-2.7023-1.02895-1.738-.90439-2.6963-1.0474c-1.2346-.18424-2.5005.16866-3.7374,0-1.4337-.1955-2.6708-1.06226-3.8849-1.84941-.607-.39357-1.2264-.77484-1.8939-1.05397s-1.3887-.45419-2.1113-.41879c-.417.0204-.843.10945-1.2459,0-.2655-.0721-.5025-.22728-.7054-.41313s-.3744-.40263-.5446-.61876-.3408-.43363-.5418-.62137-.4357-.34604-.6998-.42309c-.4014-.1171-.8295-.0386-1.2458,0-1.644.15238-3.317-.35197-4.6867-1.27381s-2.4455-2.24266-3.2034-3.70944c-.1421-.27499-.2736-.55536-.4153-.83054-.9136-1.77388-2.2637-3.3287-3.9245-4.43461s-3.6318-1.75462-5.6267-1.79446c-.4152-.008-.8307.009-1.2459,0-2.7917-.0621-5.4826-1.36552-7.4748-3.32216-1.1193-1.09925-2.0482-2.40678-3.3222-3.32217-.6558-.47117-1.3866-.82586-2.0763-1.24581-1.4528-.8846-2.7671-2.12967-3.3222-3.73744-.3296-.95455-.3813-2.0025-.8306-2.90689-.1378-.27747-.3119-.53844-.4152-.83055-.1284-.36311-.1403-.7648-.044-1.13773s.2988-.71635.5712-.98862 .6132-.4737.9799-.59145 .7586-.15254 1.1416-.1122c.7661.0807 1.4832.46097 2.0417.99148s.9662,1.20465 1.2601,1.91662c.5879,1.42395.7326,2.98644 1.1263,4.47583 .1968.74469.4591,1.47811.8583,2.13687s.9419,1.2424 1.6163,1.61462c.6801.37541 1.4664.52242 2.2429.54837s1.5514-.0634 2.3251-.1331c3.4931-.31453 5.4232,6.42711 8.7431,7.55829s6.3573,1.31918 9.5288-.0834c.378.79214.6576,1.63113.8305,2.49162" fill="#fff" filter="url(#x)" opacity=".1844"/>
  <path d="m1270.2902,383.77945c-10.8223-76.95701 44.5888-174.85281 222.5797-200.26303l-44.6334,18.20573c-.4126-1.15691-1.1594-2.19249-2.1267-2.94939s-2.1522-1.23261-3.3744-1.35483-2.4777.10945-3.5758.6598-2.0351,1.41756-2.6687,2.46985c-.522.86705-.8361,1.8438-1.325,2.72991-.2445.44305-.5347.86509-.8998,1.21553-.365.35044-.8086.62773-1.2989.75282-.5723.146-1.1748.0802-1.7612.0101s-1.187-.14292-1.7625-.0101c-.4301.0993-.8298.31165-1.1746.58728-.555.44363-.9655,1.04192-1.3164,1.6597s-.6511,1.26468-1.0327,1.86399c-.7745,1.2164-1.8706,2.20874-3.0942,2.97183s-2.5742,1.30468-3.9532,1.72642c-3.6075,1.1033-7.4033,1.3994-11.1583,1.76184-2.5657.24764-5.1387.53113-7.6347,1.17457-4.62,1.19101-8.8677,3.58648-13.5075,4.69825-1.9209.46028-3.9059.69984-5.7482,1.41218-.9212.35617-1.8035.83236-2.5519,1.47686s-1.3596,1.46357-1.6837,2.3965c-.2035.58583-.2952,1.21472-.5872,1.76184-.2804.52539-.7344.94603-1.25,1.24416s-1.0917.4794-1.6755.59706c-1.1676.23532-2.3778.22427-3.5346.50791-1.4738.36137-2.8013,1.19045-3.932,2.20252s-2.0813,2.20676-3.0044,3.4112-1.8281,2.42897-2.8845,3.51843-2.2784,2.0479-3.6866,2.61348c-2.0765.834-4.4506.77734-6.4601,1.76184-1.1247.55099-2.0747,1.40142-2.9437,2.3033s-1.6739,1.86713-2.596,2.71451-1.9821,1.58347-3.1881,1.92122c-.603.16887-1.2376.23499-1.8596.16284s-1.2309-.28494-1.7455-.64177c-.091-.0634-.1804-.13125-.2781-.1845s-.2054-.0912-.3165-.0976-.2235.0199-.3215.0727-.1798.1307-.2585.20941l-15.8566,15.85661c-.1499.1499-.2979.30446-.4084.48535s-.1821.38496-.2117.59487-.019.42335.0006.63447 .046.42288.032.63443c-.026.40078-.1987.78372-.4479,1.09867s-.5718.56569-.9166.77171c-.6894.41205-1.4703.65301-2.1592,1.06603-1.3424.80481-2.2237,2.18951-2.9402,3.58101s-1.3319,2.86087-2.3453,4.05365c-1.2725,1.49777-3.0624,2.43439-4.6983,3.52369-4.8778,3.24809-8.567,8.036-11.3648,13.18532s-4.7741,10.69503-6.8409,16.17876c-.504,1.33734-1.0185,2.69034-1.1746,4.11097-.185,1.68434.1422,3.37675.2763,5.06592 .067.84458.085,1.69736-.032,2.53637s-.3761,1.66678-.8311,2.3815c-.8284,1.30138-2.2177,2.11528-3.5237,2.93641-2.1927,1.37864-4.3076,2.92642-6.0208,4.86901s-3.0132,4.31202-3.3757,6.87662c-.2921,2.06646.029,4.17053.4805,6.20804s1.0363,4.05231 1.2813,6.12488c.4601,3.89203-.2923,7.83741 0,11.74563 .1634,2.1852.6517,4.33211 1.1746,6.4601 .3315,1.349.6785,2.69927.8379,4.07924s.1255,2.8015-.2933,4.126-1.249,2.5484-2.4347,3.27219c-.5929.36189-1.2676.59411-1.96.649s-1.4015-.0702-2.0227-.3808" fill="#fff" filter="url(#z)" opacity=".3361"/>
  <g transform="translate(984.28 -51.681)">
   <path d="m871.66 425.3 6.3741 41.432 8.3218 44.973c10.845 12.344 20.466 3.899 21.955-4.6035l-7.9676-46.389-8.1447-46.921z" fill="url(#i)"/>
   <path d="m892.19 413.78-20.531 11.531 6.25 40.562c8.2862-5.4774 15.514-5.8514 22.469-4.9375l-0.0312-0.21875-8.1562-46.938z" fill="url(#h)"/>
   <path d="m862.99 401.93c1.1356-4.9625 25.63-7.9717 29.569-2.4788 2.4192 8.4988 3.0211 16.998 3.5412 25.496-8.1965-2.0488-16.905-1.9488-27.444 5.843-2.4963-9.4176-4.8069-18.897-5.6659-28.861z" fill="url(#j)"/>
   <path d="m889.75 423.03c-2.3372 0.0264-5.0787 0.31821-8 0.90625-7.7902 1.5681-13.753 4.6265-13.312 6.8125 0.22944 1.1398 2.1694 1.7996 5.0625 1.9688-0.87932-0.27921-1.4571-0.66094-1.5625-1.1875-0.35765-1.7862 4.5119-4.2812 10.844-5.5625s11.736-0.87994 12.094 0.90625c0.0541 0.27013-0.0165 0.57942-0.1875 0.875 1.3938-0.93787 2.1338-1.8677 1.9688-2.6875-0.27502-1.3663-3.011-2.0752-6.9062-2.0312z" fill="url(#g)"/>
   <g transform="matrix(.99861 .05275 -.05275 .99861 -89.261 -41.932)">
    <path d="m871.66 425.3 6.3741 41.432 8.3218 44.973c10.845 12.344 20.466 3.899 21.955-4.6035l-7.9676-46.389-8.1447-46.921z" fill="url(#i)"/>
    <path d="m892.19 413.78-20.531 11.531 6.25 40.562c8.2862-5.4774 15.514-5.8514 22.469-4.9375l-0.0312-0.21875-8.1562-46.938z" fill="url(#h)"/>
    <path d="m862.99 401.93c1.1356-4.9625 25.63-7.9717 29.569-2.4788 2.4192 8.4988 3.0211 16.998 3.5412 25.496-8.1965-2.0488-16.905-1.9488-27.444 5.843-2.4963-9.4176-4.8069-18.897-5.6659-28.861z" fill="url(#j)"/>
    <path d="m889.75 423.03c-2.3372 0.0264-5.0787 0.31821-8 0.90625-7.7902 1.5681-13.753 4.6265-13.312 6.8125 0.22944 1.1398 2.1694 1.7996 5.0625 1.9688-0.87932-0.27921-1.4571-0.66094-1.5625-1.1875-0.35765-1.7862 4.5119-4.2812 10.844-5.5625s11.736-0.87994 12.094 0.90625c0.0541 0.27013-0.0165 0.57942-0.1875 0.875 1.3938-0.93787 2.1338-1.8677 1.9688-2.6875-0.27502-1.3663-3.011-2.0752-6.9062-2.0312z" fill="url(#g)"/>
   </g>
  </g>
  <path d="m1612.2 226.85 60.901 0.90625c1.0111 0.0437 1.8902 0.0815 2.6513 0.123 2.6147 0.21663 3.9359 3.1744 3.5046 4.3914-0.2472 0.65313-0.5286 1.4085-0.8186 2.2834l-10.157 30.635c-1.43 2.544-3.1438 2.8665-5.7839 3.7111l-64.18-0.77092c-2.6957-1.326-2.7179-2.0948-2.931-4.8932l10.012-31.902c1.7721-2.5352 4.0622-3.3184 6.802-4.4851z" fill="#4d4d4d"/>
  <path d="m1612.9 227.44 59.2 0.88094c0.9829 0.0425 1.8374 0.0792 2.5773 0.11956 2.5416 0.21058 3.826 3.0857 3.4067 4.2688-0.2403 0.63489-0.5138 1.3692-0.7958 2.2196l-9.8735 29.78c-1.39 2.473-3.0559 2.7865-5.6223 3.6074l-62.387-0.74939c-2.6204-1.289-2.642-2.0362-2.8491-4.7565l9.732-31.01c1.7226-2.4644 3.9487-3.2257 6.612-4.3598z"/>
  <path transform="matrix(1.2715 -.25128 .28705 1.113 648.1 143.95)" d="m923.97 300.56c-2.6166 0-4.9697 0.61728-6.625 1.5625s-2.5625 2.1643-2.5625 3.4062 0.90739 2.4372 2.5625 3.375 4.0072 1.5625 6.625 1.5625 4.9929-0.62416 6.6562-1.5625 2.5625-2.1352 2.5625-3.375-0.89896-2.4605-2.5625-3.4062-4.0397-1.5625-6.6562-1.5625z" fill="url(#t)"/>
  <path d="m1601.3 175.26c-16.094 0.7544-30.77 6.444-37.531 24.531-5.6667 7.6052-6.5658 20.119-6.9375 33.156 0.014 0.1672 0.017 0.3329 0.031 0.5 0.394-12.201 1.4036-23.832 6.9062-30.969 6.7614-17.478 21.437-22.958 37.531-23.688l316.03 4.8125c4.3894 0.47492 8.2676 1.6643 11.875 3.2188l5.0625 30.25 0.1563-1.2188-5.2188-32.281c-3.6074-1.6086-7.4856-2.821-11.875-3.3125l-316.03-5z" fill="url(#s)" filter="url(#aa)" opacity=".2664"/>
  <g transform="matrix(.99967 .0256 -.0256 .99967 1048.7 -66.087)">
   <path d="m473.5 239.95 18.404-0.8764 0.7512 7.0112-18.53 1.1268c-2.327-2.4205-1.5759-4.841-0.626-7.2616z" fill="#1a1a1a"/>
   <path d="m473.13 238.95 18.404-0.8764 0.7512 7.0112-18.53 1.1268c-2.327-2.4205-1.5759-4.841-0.626-7.2616z" fill="#4d4d4d"/>
  </g>
  <path d="m1560 168.99c0.2089-0.39685 6.4936 34.415 6.5104 34.555 1.1142 9.3042-5.7592 27.544-5.7592 27.544-11.596 0.62925-22.326-4.8061-33.303-8.5136l2.7544-18.279 0.5008-8.764-4.2568-0.2504-1.0016-10.016 5.008-0.5008 0.2504-9.5152c9.3961-3.9342 19.235-5.656 29.297-6.26z" fill="#4d4d4d"/>
  <path d="m1457.9 209.81 18.421-0.40491 0.5714 7.0281-18.552 0.65202c-2.2642-2.4793-1.4514-4.8798-0.4398-7.2752z" fill="#1a1a1a"/>
  <path d="m1457.5 208.8 18.421-0.40492 0.5714 7.0281-18.552 0.65202c-2.2643-2.4793-1.4515-4.8798-0.4399-7.2752z" fill="#212121"/>
  <g transform="matrix(.99714 .07555 -.07555 .99714 1004 -87.436)">
   <path d="m473.5 239.95 18.404-0.8764 0.7512 7.0112-18.53 1.1268c-2.327-2.4205-1.5759-4.841-0.626-7.2616z" fill="#1a1a1a"/>
   <path d="m473.13 238.95 18.404-0.8764 0.7512 7.0112-18.53 1.1268c-2.327-2.4205-1.5759-4.841-0.626-7.2616z" fill="#4d4d4d"/>
  </g>
  <path d="m1459.2 179.04-16.438 0.5c1.9917 0.91075 4.0212 10.199 4.6563 21.625 0.6519 11.728-0.3994 21.394-2.375 22.094v0.0312l17.156-0.15625c2.1253-15.087 2.3845-29.946-3-44.094z" fill="#4d4d4d"/>
  <g transform="matrix(.99967 .0256 -.0256 .99967 1005.7 -52.807)">
   <path d="m473.5 239.95 18.404-0.8764 0.7512 7.0112-18.53 1.1268c-2.327-2.4205-1.5759-4.841-0.626-7.2616z" fill="#1a1a1a"/>
   <path d="m473.13 238.95 18.404-0.8764 0.7512 7.0112-18.53 1.1268c-2.327-2.4205-1.5759-4.841-0.626-7.2616z" fill="#4d4d4d"/>
  </g>
  <path d="m1475.7 179.04-10.715 0.5c1.2983 0.91075 2.6212 10.199 3.0351 21.625 0.425 11.728-0.2603 21.394-1.5481 22.094v0.0312l11.183-0.15625c1.3853-15.087 1.5543-29.946-1.9555-44.094z" fill="#4d4d4d"/>
  <path d="m1486.5 209.63 18.421-0.40491 0.5714 7.0281-18.552 0.65202c-2.2643-2.4793-1.4515-4.8798-0.4399-7.2752z" fill="#1a1a1a"/>
  <path d="m1486.2 208.62 18.421-0.40492 0.5715 7.0281-18.552 0.65202c-2.2643-2.4793-1.4515-4.8798-0.4399-7.2752z" fill="#1f1f1f"/>
  <g transform="matrix(.99967 .0256 -.0256 .99967 1019 -65.201)">
   <path d="m473.5 239.95 18.404-0.8764 0.7512 7.0112-18.53 1.1268c-2.327-2.4205-1.5759-4.841-0.626-7.2616z" fill="#1a1a1a"/>
   <path d="m473.13 238.95 18.404-0.8764 0.7512 7.0112-18.53 1.1268c-2.327-2.4205-1.5759-4.841-0.626-7.2616z" fill="#4d4d4d"/>
  </g>
  <path d="m1488.3 179.04-10.715 0.5c1.2983 0.91075 2.6212 10.199 3.0351 21.625 0.425 11.728-0.2603 21.394-1.5481 22.094v0.0312l11.183-0.15625c1.3853-15.087 1.5543-29.946-1.9555-44.094z" fill="#4d4d4d"/>
  <g transform="matrix(.99967 .0256 -.0256 .99967 1034.7 -55.109)">
   <path d="m473.5 239.95 18.404-0.8764 0.7512 7.0112-18.53 1.1268c-2.327-2.4205-1.5759-4.841-0.626-7.2616z" fill="#1a1a1a"/>
   <path d="m473.13 238.95 18.404-0.8764 0.7512 7.0112-18.53 1.1268c-2.327-2.4205-1.5759-4.841-0.626-7.2616z" fill="#4d4d4d"/>
  </g>
  <path d="m1507.3 179.04-10.715 0.5c1.2983 0.91075 2.6212 10.199 3.0351 21.625 0.425 11.728-0.2603 21.394-1.5481 22.094v0.0312l11.183-0.15625c1.3853-15.087 1.5543-29.946-1.9555-44.094z" fill="#4d4d4d"/>
  <path d="m1517 208.92 18.421-0.40491 0.5714 7.0281-18.552 0.65203c-2.2642-2.4793-1.4514-4.8798-0.4399-7.2752z" fill="#1a1a1a"/>
  <path d="m1516.7 207.91 18.421-0.40491 0.5714 7.0281-18.552 0.65203c-2.2643-2.4793-1.4515-4.8798-0.4399-7.2752z" fill="#242424"/>
  <path d="m1519.7 179.04-10.714 0.5c1.2982 0.91075 2.6211 10.199 3.0351 21.625 0.4249 11.728-0.2604 21.394-1.5481 22.094v0.0312l11.183-0.15625c1.3853-15.087 1.5543-29.946-1.9555-44.094z" fill="#4d4d4d"/>
  <path d="m1560 168.99c0.2089-0.39685 6.4936 34.415 6.5104 34.555 1.1142 9.3042-5.7592 27.544-5.7592 27.544-11.596 0.62925-22.326-4.8061-33.303-8.5136l2.7544-18.279 0.5008-8.764-4.2568-0.2504-1.0016-10.016 5.008-0.5008 0.2504-9.5152c9.3961-3.9342 19.235-5.656 29.297-6.26z" fill="url(#v)"/>
  <path d="m1459.2 179.04-16.438 0.5c1.9917 0.91075 4.0212 10.199 4.6563 21.625 0.6519 11.728-0.3994 21.394-2.375 22.094v0.0312l17.156-0.15625c2.1253-15.087 2.3845-29.946-3-44.094z" fill="url(#b)"/>
  <path d="m1475.7 179.04-10.715 0.5c1.2983 0.91075 2.6212 10.199 3.0351 21.625 0.425 11.728-0.2603 21.394-1.5481 22.094v0.0312l11.183-0.15625c1.3853-15.087 1.5543-29.946-1.9555-44.094z" fill="url(#b)"/>
  <path d="m1488.3 179.04-10.715 0.5c1.2983 0.91075 2.6212 10.199 3.0351 21.625 0.425 11.728-0.2603 21.394-1.5481 22.094v0.0312l11.183-0.15625c1.3853-15.087 1.5543-29.946-1.9555-44.094z" fill="url(#b)"/>
  <path d="m1507.3 179.04-10.715 0.5c1.2983 0.91075 2.6212 10.199 3.0351 21.625 0.425 11.728-0.2603 21.394-1.5481 22.094v0.0312l11.183-0.15625c1.3853-15.087 1.5543-29.946-1.9555-44.094z" fill="url(#b)"/>
  <path d="m1519.7 179.04-10.714 0.5c1.2982 0.91075 2.6211 10.199 3.0351 21.625 0.4249 11.728-0.2604 21.394-1.5481 22.094v0.0312l11.183-0.15625c1.3853-15.087 1.5543-29.946-1.9555-44.094z" fill="url(#b)"/>
  <path d="m1747.1 646.61 18.339-1.7613 1.0153 5.6716-18.455 1.9725c-2.4145-1.8404-1.7564-3.8559-0.8998-5.8828z" fill="#1a1a1a"/>
  <path d="m1746.7 645.82 18.339-1.7614 1.0154 5.6716-18.455 1.9725c-2.4147-1.8404-1.7566-3.8559-0.9-5.8827z" fill="#212121"/>
  <g transform="matrix(.99892 -.01607 -.01209 .81685 1275.8 440.15)">
   <path d="m473.5 239.95 18.404-0.8764 0.7512 7.0112-18.53 1.1268c-2.327-2.4205-1.5759-4.841-0.626-7.2616z" fill="#1a1a1a"/>
   <path d="m473.13 238.95 18.404-0.8764 0.7512 7.0112-18.53 1.1268c-2.327-2.4205-1.5759-4.841-0.626-7.2616z" fill="#4d4d4d"/>
  </g>
  <path d="m1746.5 621.49-16.356 1.6845c2.0435 0.58588 4.6559 7.9825 6.0136 17.226 1.3938 9.488 0.9586 17.431-0.9666 18.153v0.0253l17.094-1.4608c1.1621-12.435 0.4782-24.54-5.7872-35.628z" fill="#4d4d4d"/>
  <g transform="matrix(.99827 -.05689 .03787 .81502 1279.7 468.18)">
   <path d="m473.5 239.95 18.404-0.8764 0.7512 7.0112-18.53 1.1268c-2.327-2.4205-1.5759-4.841-0.626-7.2616z" fill="#1a1a1a"/>
   <path d="m473.13 238.95 18.404-0.8764 0.7512 7.0112-18.53 1.1268c-2.327-2.4205-1.5759-4.841-0.626-7.2616z" fill="#4d4d4d"/>
  </g>
  <path d="m1763 620.2-10.65 1.2396c1.3522 0.63978 3.2601 8.0913 4.3973 17.352 1.1675 9.5057 1.0973 17.42-0.1422 18.089v0.0253l11.139-0.99645c0.4243-12.378-0.3495-24.476-4.7459-35.709z" fill="#4d4d4d"/>
  <path d="m1775.7 644.24 18.339-1.7613 1.0154 5.6716-18.455 1.9725c-2.4147-1.8404-1.7566-3.8559-0.8999-5.8828z" fill="#1a1a1a"/>
  <path d="m1775.3 643.44 18.339-1.7613 1.0155 5.6716-18.455 1.9725c-2.4146-1.8404-1.7565-3.8559-0.8999-5.8828z" fill="#1f1f1f"/>
  <g transform="matrix(.99827 -.05689 .03787 .81502 1292.1 457.06)">
   <path d="m473.5 239.95 18.404-0.8764 0.7512 7.0112-18.53 1.1268c-2.327-2.4205-1.5759-4.841-0.626-7.2616z" fill="#1a1a1a"/>
   <path d="m473.13 238.95 18.404-0.8764 0.7512 7.0112-18.53 1.1268c-2.327-2.4205-1.5759-4.841-0.626-7.2616z" fill="#4d4d4d"/>
  </g>
  <path d="m1775.5 619.22-10.65 1.2396c1.3521 0.63979 3.2601 8.0913 4.3973 17.352 1.1675 9.5057 1.0972 17.42-0.1423 18.089v0.0253l11.139-0.99645c0.4244-12.378-0.3494-24.476-4.7459-35.709z" fill="#4d4d4d"/>
  <g transform="matrix(.99827 -.05689 .03787 .81502 1308.5 464.05)">
   <path d="m473.5 239.95 18.404-0.8764 0.7512 7.0112-18.53 1.1268c-2.327-2.4205-1.5759-4.841-0.626-7.2616z" fill="#1a1a1a"/>
   <path d="m473.13 238.95 18.404-0.8764 0.7512 7.0112-18.53 1.1268c-2.327-2.4205-1.5759-4.841-0.626-7.2616z" fill="#4d4d4d"/>
  </g>
  <path d="m1794.4 617.75-10.65 1.2396c1.3521 0.63978 3.26 8.0913 4.3973 17.352 1.1675 9.5057 1.0972 17.42-0.1423 18.089v0.0253l11.139-0.99645c0.4243-12.378-0.3495-24.476-4.7459-35.709z" fill="#4d4d4d"/>
  <path d="m1806.8 616.78-10.65 1.2396c1.3521 0.63979 3.26 8.0913 4.3974 17.352 1.1674 9.5057 1.0971 17.42-0.1423 18.089v0.0253l11.139-0.99644c0.4243-12.378-0.3495-24.476-4.7459-35.709z" fill="#4d4d4d"/>
  <path d="m1746.5 621.49-16.356 1.6845c2.0435 0.58588 4.6559 7.9825 6.0136 17.226 1.3938 9.488 0.9586 17.431-0.9666 18.153v0.0253l17.094-1.4608c1.1621-12.435 0.4782-24.54-5.7872-35.628z" fill="url(#a)"/>
  <path d="m1763 620.2-10.65 1.2396c1.3522 0.63978 3.2601 8.0913 4.3973 17.352 1.1675 9.5057 1.0973 17.42-0.1422 18.089v0.0253l11.139-0.99645c0.4243-12.378-0.3495-24.476-4.7459-35.709z" fill="url(#a)"/>
  <path d="m1775.5 619.22-10.65 1.2396c1.3521 0.63979 3.2601 8.0913 4.3973 17.352 1.1675 9.5057 1.0972 17.42-0.1423 18.089v0.0253l11.139-0.99645c0.4244-12.378-0.3494-24.476-4.7459-35.709z" fill="url(#a)"/>
  <path d="m1794.4 617.75-10.65 1.2396c1.3521 0.63978 3.26 8.0913 4.3973 17.352 1.1675 9.5057 1.0972 17.42-0.1423 18.089v0.0253l11.139-0.99645c0.4243-12.378-0.3495-24.476-4.7459-35.709z" fill="url(#a)"/>
  <path d="m1806.8 616.78-10.65 1.2396c1.3521 0.63979 3.26 8.0913 4.3974 17.352 1.1674 9.5057 1.0971 17.42-0.1423 18.089v0.0253l11.139-0.99644c0.4243-12.378-0.3495-24.476-4.7459-35.709z" fill="url(#a)"/>
  <path d="m1817.6 614.87 14.388-2.0555 14.095-3.23 13.508-0.88093 9.1028-0.29364s0-8.5156-1.7618-8.8092-5.8728-3.8173-7.9283-4.111-13.801-2.9364-13.801-2.9364h-5.2856l-8.5155 5.8728-2.9365 1.1746-9.3965 6.7537-4.1109 1.7618h-0.881z" fill="url(#e)" opacity=".5984"/>
  <path d="m1909.8 605.48 10.277-1.7618s7.6346-2.0555 8.5156-1.7618 2.6427 0 3.8173 0.29364 5.5792 0.58729 2.6428-1.1746-8.222-3.8173-9.6902-4.111-6.4601-2.0555-6.4601-2.0555l-7.6346-0.58728-3.8174 1.4682h-2.0555c1.1599 2.1788 5.25 3.1855 2.9364 6.7537z" fill="url(#e)" opacity=".5984"/>
  <path d="m1989.2 604.05-0.9063 0.15625c1.1081 1.725 1.0379 3.5256 0.9063 5.3125l0.9062-0.15625c0.7996-2.6325 0.027-4.028-0.9062-5.3125z"/>
  <path d="m1982.5 605.29-0.9063 0.15625c1.1081 1.725 1.0379 3.5256 0.9063 5.3125l0.9062-0.15625c0.7996-2.6325 0.027-4.028-0.9062-5.3125z"/>
  <path d="m1983.8 605.04-0.9063 0.15625c1.1081 1.725 1.0379 3.5256 0.9063 5.3125l0.9062-0.15625c0.7996-2.6325 0.027-4.028-0.9062-5.3125z"/>
  <path d="m1370.9412,454.45476c7.2282,2.0381 14.8582,2.64047 22.3167,1.76185 4.1251-.48595 8.1935-1.41859 12.333-1.76185 2.3858-.19784 4.8545-.21406 7.0473-1.17456 1.2503-.54765 2.3509-1.37888 3.4644-2.16841s2.2742-1.55507 3.583-1.94256c1.1439-.33866 2.3594-.37415 3.5474-.26546s2.358.35799 3.53.5806 2.3557.4195 3.5486.42134 2.4037-.19914 3.4688-.73648c1.3685-.6904 2.4083-1.88266 3.3592-3.0849s1.8689-2.4633 3.1009-3.3752c.5175-.38304 1.0821-.69776 1.6111-1.06475s1.0309-.79654 1.3623-1.34857c.1657-.27602.2864-.58081.3372-.89871s.03-.64907-.076-.95284-.301-.57878-.5623-.76685-.5898-.28566-.9101-.25381c-.1563.0155-.3141.0636-.4327.16661-.059.0515-.1076.11622-.1361.1894s-.037.15484-.019.23127c.021.0901.078.17026.1531.22482 .075.0546.1665.0841.2589.0898 .1849.0114.365-.0703.5121-.18281s.2679-.25499.3966-.38823 .2699-.26054.4412-.3309c.2191-.09.4733-.0772.693.0114s.4062.24868.5489.43775c.2856.37813.3968.85515.5199,1.3127 1.1121,4.13443 3.7682,7.8016 7.2391,10.3083s7.7217,3.86743 11.9996,4.04083c1.5223.0617 3.0474-.0219 4.5701.0297s3.0627.24426 4.4687.83118c1.0409.43451 1.9809,1.07315 2.944,1.66028s1.9755,1.13354 3.0819,1.35265c1.1367.22511 2.3337.0963 3.4433.43042 .8441.25413 1.5935.76664 2.2248,1.38181s1.1531,1.33276 1.649,2.06154c1.2045,1.77018 2.2898,3.64609 3.794,5.16982 .7522.76186 1.6083,1.43062 2.5708,1.89939s2.0353.73253 3.1045.67833c.2873-.0146.5777-.0516.8607,0 .3499.0638.6666.26208.9109.52061s.4203.57499.5549.90421c.2691.65843.3808,1.37614.6863,2.01853 .3338.702.8858,1.28192 1.5042,1.75297s1.3056.84212 1.987,1.21603 1.3642.75521 1.9689,1.24361 1.1331,1.09345 1.4266,1.81325c.2604.63882.3257,1.33695.4564,2.01433s.3467,1.37204.8349,1.85945c.3292.32867.756.53673 1.1561.77414 .2.11871.3958.24658.5697.40098s.3262.33658.4263.54655c.1586.33278.1777.71231.1996,1.08031s.053.74892.2308,1.07178c.1477.26799.385.4738.6234.66563s.4864.37926.6679.62563c.2207.29955.3288.66891.3772,1.0378s.041.74245.053,1.1143c.058,1.7596.5562,3.47935 1.2164,5.11144s1.4829,3.19263 2.227,4.78819c1.5295,3.27942 2.7473,6.85702 2.3662,10.45543-.1906,1.79921-.7938,3.57182-1.8631,5.0313s-2.62,2.58912-4.3769,3.02128c-.7107.1748-1.4464.23656-2.1521.43042-.5752.15802-1.1229.40174-1.6881.59274s-1.1619.33026-1.7552.2681c-.8736-.0915-1.6658-.62599-2.1807-1.3377s-.7717-1.58568-.8524-2.46039c-.1612-1.74943.3461-3.48697.4505-5.24071 .1507-2.53189-.551-5.06707-1.7217-7.31712-.5931-1.13992-1.3096-2.22622-1.7216-3.44335-.2351-.69461-.3669-1.42152-.4305-2.15209-.1367-1.56974.038-3.15235-.065-4.72465-.052-.78615-.174-1.57222-.4337-2.316s-.6614-1.44588-1.2233-1.99815c-.5136-.50483-1.1439-.87084-1.7575-1.24777s-1.2278-.77898-1.6858-1.33475c-.4094-.49679-.6754-1.09415-.9165-1.69101s-.4648-1.20599-.8053-1.75233c-.5129-.82313-1.267-1.46552-2.0404-2.05075s-1.5835-1.13171-2.2637-1.82303c-1.2305-1.25052-1.9642-2.89782-3.013-4.30418-1.8081-2.42457-4.5029-4.05691-7.3171-5.16503-2.1595-.8503-4.4393-1.43441-6.4563-2.58251-1.2493-.7111-2.3714-1.62473-3.4433-2.58252-3.4997-3.12718-6.5667-6.7984-10.5352-9.30398-1.9843-1.25279-4.1935-2.19801-6.5195-2.5088s-4.776.044-6.8019,1.22836c-2.1682,1.26759-3.7315,3.38557-5.8728,4.69825-2.089,1.28063-4.5977,1.71-7.0474,1.76185-7.1264.15084-14.0198-2.65417-21.1422-2.93641-6.0825-.24103-12.1214,1.36604-18.2057,1.17456-3.5361-.11129-7.1307-.82451-10.5711,0-.7852.18818-1.5525.45514-2.3491.58729-1.5341.25452-3.1503-.0142-4.5195-.75149s-2.4832-1.93859-3.1152-3.35949" fill="#fff" filter="url(#y)" opacity=".1803"/>
 </g>
</svg>
