<?xml version="1.0" encoding="UTF-8"?>
<!DOCTYPE svg PUBLIC "-//W3C//DTD SVG 1.1//EN" "http://www.w3.org/Graphics/SVG/1.1/DTD/svg11.dtd">
<!-- Creator: CorelDRAW 2018 (64-Bit) -->
<svg xmlns="http://www.w3.org/2000/svg" xml:space="preserve" width="10in" height="10in" version="1.1" style="shape-rendering:geometricPrecision; text-rendering:geometricPrecision; image-rendering:optimizeQuality; fill-rule:evenodd; clip-rule:evenodd"
viewBox="0 0 10000 10000"
 xmlns:xlink="http://www.w3.org/1999/xlink">
 <defs>
  <style type="text/css">
   <![CDATA[
    .str0 {stroke:black;stroke-width:6.94;stroke-miterlimit:2.61313}
    .fil2 {fill:none}
    .fil1 {fill:black}
    .fil0 {fill:#E6E6E6}
    .fil3 {fill:white}
    .fil4 {fill:white;fill-rule:nonzero}
   ]]>
  </style>
    <clipPath id="id0">
     <path d="M3484.85 861.09l2986.71 0c326.29,0 593.24,266.96 593.24,593.24l0 7091.33c0,326.29 -266.96,593.24 -593.24,593.24l-2986.71 0c-326.29,0 -593.24,-266.96 -593.24,-593.24l0 -7091.33c0,-326.29 266.96,-593.24 593.24,-593.24z"/>
    </clipPath>
    <clipPath id="id1">
     <path d="M3484.85 861.09l2986.71 0c326.29,0 593.24,266.96 593.24,593.24l0 7091.33c0,326.29 -266.96,593.24 -593.24,593.24l-2986.71 0c-326.29,0 -593.24,-266.96 -593.24,-593.24l0 -7091.33c0,-326.29 266.96,-593.24 593.24,-593.24z"/>
    </clipPath>
    <clipPath id="id2">
     <path d="M3484.85 983.02l2986.71 0c259.22,0 471.31,212.09 471.31,471.31l0 7091.33c0,259.22 -212.09,471.31 -471.31,471.31l-2986.71 0c-259.22,0 -471.31,-212.09 -471.31,-471.31l0 -7091.33c0,-259.22 212.09,-471.31 471.31,-471.31z"/>
    </clipPath>
    <clipPath id="id3">
     <path d="M7053.26 2137.67l0 0c30.32,0 55.13,24.81 55.13,55.13l0 660.57c0,30.32 -24.81,55.13 -55.13,55.13l0 0c-30.32,0 -55.13,-24.81 -55.13,-55.13l0 -660.57c0,-30.32 24.81,-55.13 55.13,-55.13z"/>
    </clipPath>
    <clipPath id="id4">
     <path d="M7053.26 3033.5l0 0c30.32,0 55.13,24.81 55.13,55.13l0 325.95c0,30.32 -24.81,55.13 -55.13,55.13l0 0c-30.32,0 -55.13,-24.81 -55.13,-55.13l0 -325.95c0,-30.32 24.81,-55.13 55.13,-55.13z"/>
    </clipPath>
    <clipPath id="id5">
     <path d="M4735.65 861.09l485.12 0c98.63,0 179.31,80.69 179.31,179.31l0 0c0,98.63 -80.69,179.32 -179.31,179.32l-485.12 0c-98.63,0 -179.31,-80.69 -179.31,-179.32l0 0c0,-98.63 80.69,-179.31 179.31,-179.31z"/>
    </clipPath>
 </defs>
 <g id="Layer_x0020_1">
  <metadata id="CorelCorpID_0Corel-Layer"/>
  <rect class="fil0" width="10000" height="10000"/>
  <g id="_2226836369280">
   <g>
   </g>
   <g style="clip-path:url(#id0)">
    <g id="_2226836574208">
     <rect class="fil1 str0" x="2917.33" y="8463.75" width="4114.1" height="731.77"/>
    </g>
   </g>
   <path class="fil2" d="M3484.85 861.09l2986.71 0c326.29,0 593.24,266.96 593.24,593.24l0 7091.33c0,326.29 -266.96,593.24 -593.24,593.24l-2986.71 0c-326.29,0 -593.24,-266.96 -593.24,-593.24l0 -7091.33c0,-326.29 266.96,-593.24 593.24,-593.24z"/>
   <path class="fil1" d="M3484.85 861.09l2986.71 0c326.29,0 593.24,266.96 593.24,593.24l0 7091.33c0,326.29 -266.96,593.24 -593.24,593.24l-2986.71 0c-326.29,0 -593.24,-266.96 -593.24,-593.24l0 -7091.33c0,-326.29 266.96,-593.24 593.24,-593.24z"/>
   <g style="clip-path:url(#id1)">
    <g id="_2226836574208">
     <rect class="fil1 str0" x="2917.33" y="8463.75" width="4114.1" height="731.77"/>
    </g>
   </g>
   <path class="fil2" d="M3484.85 861.09l2986.71 0c326.29,0 593.24,266.96 593.24,593.24l0 7091.33c0,326.29 -266.96,593.24 -593.24,593.24l-2986.71 0c-326.29,0 -593.24,-266.96 -593.24,-593.24l0 -7091.33c0,-326.29 266.96,-593.24 593.24,-593.24z"/>
   <path class="fil3" d="M3484.85 983.02l2986.71 0c259.22,0 471.31,212.09 471.31,471.31l0 7091.33c0,259.22 -212.09,471.31 -471.31,471.31l-2986.71 0c-259.22,0 -471.31,-212.09 -471.31,-471.31l0 -7091.33c0,-259.22 212.09,-471.31 471.31,-471.31z"/>
   <g style="clip-path:url(#id2)">
    <g id="_2226836574208">
     <rect class="fil1 str0" x="2917.33" y="8463.75" width="4114.1" height="731.77"/>
    </g>
   </g>
   <path class="fil2" d="M3484.85 983.02l2986.71 0c259.22,0 471.31,212.09 471.31,471.31l0 7091.33c0,259.22 -212.09,471.31 -471.31,471.31l-2986.71 0c-259.22,0 -471.31,-212.09 -471.31,-471.31l0 -7091.33c0,-259.22 212.09,-471.31 471.31,-471.31z"/>
   <path class="fil1" d="M7053.26 2137.67l0 0c30.32,0 55.13,24.81 55.13,55.13l0 660.57c0,30.32 -24.81,55.13 -55.13,55.13l0 0c-30.32,0 -55.13,-24.81 -55.13,-55.13l0 -660.57c0,-30.32 24.81,-55.13 55.13,-55.13z"/>
   <g style="clip-path:url(#id3)">
    <g id="_2226836574208">
     <rect class="fil1 str0" x="2917.33" y="8463.75" width="4114.1" height="731.77"/>
    </g>
   </g>
   <path class="fil2" d="M7053.26 2137.67l0 0c30.32,0 55.13,24.81 55.13,55.13l0 660.57c0,30.32 -24.81,55.13 -55.13,55.13l0 0c-30.32,0 -55.13,-24.81 -55.13,-55.13l0 -660.57c0,-30.32 24.81,-55.13 55.13,-55.13z"/>
   <path class="fil1" d="M7053.26 3033.5l0 0c30.32,0 55.13,24.81 55.13,55.13l0 325.95c0,30.32 -24.81,55.13 -55.13,55.13l0 0c-30.32,0 -55.13,-24.81 -55.13,-55.13l0 -325.95c0,-30.32 24.81,-55.13 55.13,-55.13z"/>
   <g style="clip-path:url(#id4)">
    <g id="_2226836574208">
     <rect class="fil1 str0" x="2917.33" y="8463.75" width="4114.1" height="731.77"/>
    </g>
   </g>
   <path class="fil2" d="M7053.26 3033.5l0 0c30.32,0 55.13,24.81 55.13,55.13l0 325.95c0,30.32 -24.81,55.13 -55.13,55.13l0 0c-30.32,0 -55.13,-24.81 -55.13,-55.13l0 -325.95c0,-30.32 24.81,-55.13 55.13,-55.13z"/>
   <path class="fil1" d="M4735.65 861.09l485.12 0c98.63,0 179.31,80.69 179.31,179.31l0 0c0,98.63 -80.69,179.32 -179.31,179.32l-485.12 0c-98.63,0 -179.31,-80.69 -179.31,-179.32l0 0c0,-98.63 80.69,-179.31 179.31,-179.31z"/>
   <g style="clip-path:url(#id5)">
    <g id="_2226836574208">
     <rect class="fil1 str0" x="2917.33" y="8463.75" width="4114.1" height="731.77"/>
    </g>
   </g>
   <path class="fil2" d="M4735.65 861.09l485.12 0c98.63,0 179.31,80.69 179.31,179.31l0 0c0,98.63 -80.69,179.32 -179.31,179.32l-485.12 0c-98.63,0 -179.31,-80.69 -179.31,-179.32l0 0c0,-98.63 80.69,-179.31 179.31,-179.31z"/>
  </g>
  <circle class="fil3 str0" cx="5000" cy="8750.21" r="84.7"/>
  <path class="fil4" d="M5000 8628.46c33.62,0 64.06,13.63 86.09,35.67 22.03,22.03 35.66,52.47 35.66,86.09 0,33.62 -13.63,64.06 -35.66,86.09 -22.04,22.03 -52.47,35.66 -86.09,35.66 -33.62,0 -64.06,-13.63 -86.09,-35.66 -22.03,-22.04 -35.66,-52.47 -35.66,-86.09 0,-33.62 13.63,-64.06 35.66,-86.09 22.04,-22.04 52.47,-35.67 86.09,-35.67zm72.76 48.99c-18.61,-18.61 -44.34,-30.13 -72.76,-30.13 -28.42,0 -54.15,11.52 -72.76,30.13 -18.62,18.62 -30.13,44.34 -30.13,72.76 0,28.41 11.52,54.14 30.13,72.76 18.62,18.62 44.35,30.13 72.76,30.13 28.41,0 54.14,-11.52 72.76,-30.13 18.62,-18.62 30.13,-44.35 30.13,-72.76 0,-28.42 -11.52,-54.14 -30.13,-72.76z"/>
  <polygon class="fil3 str0" points="5660.67,8750.21 5734.29,8707.71 5807.9,8665.21 5807.9,8750.21 5807.9,8835.21 5734.29,8792.71 "/>
  <rect class="fil3" x="4180.92" y="8665.21" width="170" height="170"/>
 </g>
</svg>
