<?xml version="1.0" encoding="UTF-8"?>
<svg viewBox="0 0 744.09448819 1052.3622047" xmlns="http://www.w3.org/2000/svg" xmlns:xlink="http://www.w3.org/1999/xlink">
 <defs>
  <linearGradient id="a">
   <stop stop-color="#fff" offset="0"/>
   <stop stop-color="#494f44" offset="1"/>
  </linearGradient>
  <linearGradient id="b">
   <stop offset="0"/>
   <stop stop-opacity="0" offset="1"/>
  </linearGradient>
  <linearGradient id="i" x1="265.36" x2="575.13" gradientUnits="userSpaceOnUse">
   <stop stop-color="#fffeff" offset="0"/>
   <stop stop-color="#fffeff" stop-opacity="0" offset="1"/>
  </linearGradient>
  <linearGradient id="h" x1="288.47" x2="556.15" gradientUnits="userSpaceOnUse" xlink:href="#b"/>
  <linearGradient id="g" x1="532.3" x2="559.12" gradientUnits="userSpaceOnUse" xlink:href="#b"/>
  <radialGradient id="f" cx="398.3" cy="635.45" r="11.656" gradientTransform="matrix(1 -3.5923e-18 2.5463e-18 .26287 -4.0454e-14 468.41)" gradientUnits="userSpaceOnUse" xlink:href="#a"/>
  <radialGradient id="e" cx="398.3" cy="635.45" r="11.656" gradientTransform="matrix(1 2.3255e-18 3.1649e-18 .26287 -1.0418e-13 468.41)" gradientUnits="userSpaceOnUse" xlink:href="#a"/>
  <radialGradient id="d" cx="398.3" cy="635.45" r="11.656" gradientTransform="matrix(1 7.6597e-18 4.0321e-18 .26287 -7.6595e-14 468.41)" gradientUnits="userSpaceOnUse" xlink:href="#a"/>
  <radialGradient id="c" cx="398.3" cy="635.45" r="11.656" gradientTransform="matrix(1 9.8112e-18 1.5235e-17 .26287 -8.6053e-14 468.41)" gradientUnits="userSpaceOnUse" xlink:href="#a"/>
 </defs>
 <g transform="matrix(1.3779 0 0 1.3779 -169.76 -194.88)">
  <path d="m265.86 322.08 10.096 331.49 6.7307 4.2067 84.975-2.524 100.96-6.7307 51.321-4.2067 36.177-6.7307 18.509-3.3653-0.84134-5.048-17.668-269.23c-1.9631-1.1218-4.9582-0.00771-6.9213-1.1295-93.817-17.914-186.02-31.122-283.34-36.731z" fill="url(#i)" fill-rule="evenodd" stroke="#000"/>
  <path d="m532.35 392.73c8.7547 65.66 11.448 128.29 14.142 193.95l-240.42 9.0914c-0.67343-75.425-3.3672-148.83-8.0812-229.3 80.139 4.714 157.25 12.459 234.36 26.264z" fill="#242b31" fill-rule="evenodd" stroke="#000"/>
  <path d="m289.06 358.1c3.3672 80.812 5.5667 161.92 8.9339 242.73l258.6-11.112c-3.7039-1.3469-6.0942-1.3802-9.7981-2.727-80.139 4.0406-161.01 5.0162-241.15 9.0568 0.27015-77.591-3.4005-153.14-7.6549-230.58-1.7617-4.2544-4.9829-5.8817-8.9339-7.363z" fill="#e6e6e6" fill-rule="evenodd"/>
  <path d="m555.65 589.18-14.861-203.11-251.82-28.897c6.0369 2.817 7.9723 5.3185 9.9077 9.082 82.302 4.8754 158.4 14.063 234.18 25.774 8.1491 64.901 10.724 130.85 13.51 194.39 3.0273 1.3761 5.7392 2.016 9.082 2.761z" fill="url(#h)" fill-rule="evenodd" opacity=".89535"/>
  <path d="m314.04 667.51-23.876 11.331-17.806 6.475-5.6656 3.6422-1.6187 4.8562c44.92 32.375 187.77 32.78 222.17-1.214l-7.689-4.8562-44.111-20.234-7.689 4.8562c-44.381 10.522-81.072 4.4515-113.72-4.8562z" fill="#b8b9b3" fill-rule="evenodd"/>
  <path d="m486.84 693.41 0.80937 13.355-3.2375 4.8562c-8.7682 12.41-148.65 36.961-219.34-5.2609l-1.6187-3.6422c0.13489-3.6422 1.4995-5.531 1.6344-9.1732 75.541 49.911 219.46 16.323 221.75-0.13462z" fill="#6e706d" fill-opacity=".18452" fill-rule="evenodd"/>
  <path d="m273.57 655.41-20.234 3.2375-3.2375-2.4281-8.9031-322.94 3.2375-3.2375 19.342-9.5031 1.3286-0.12225 8.4668 334.99z" fill="#7b817d" fill-rule="evenodd"/>
  <path d="m241.19 334.09 8.8032 321.26" fill="none" stroke="#000" stroke-width=".2"/>
  <path d="m547.94 638.77-0.80937 7.2844c-90.65 7.0146-173.41 19.238-270.37 18.044 0-0.80937-22.544-4.5569-22.751-5.4698s17.004-2.2703 16.728-3.2178 1.7701 0.15434 1.5629-0.75863 2.2505-0.56181 2.2505-1.3712c91.729-0.53958 181.66 2.2158 273.39-14.511z" fill="#242b31" fill-opacity=".59524" fill-rule="evenodd"/>
  <path d="m241.17 333.47c-2.1583 2.9677-4.0462 7.2878-6.2045 10.256 2.1583 42.087 0.26979 81.747-3.2375 114.12l-42.087 21.044-4.0469 7.2844-0.80937 5.6656 0.80937 43.706 2.4281 80.128c38.04 8.9031 49.469 23.092 62.009 41.139-3.2375-109-5.6234-214.35-8.8609-323.34z" fill="#818785" fill-rule="evenodd"/>
  <path d="m183.77 488.6c53.71-24.045 48.562 130.17 58.275 156.21-6.2914-64.523-8.8777-123.91-13.464-187.59-12.41 6.475-25.968 11.228-38.379 17.703-4.629 5.2046-5.1828 7.6039-6.4319 13.673z" fill="#b4b4b4" fill-rule="evenodd"/>
  <path d="m186.7 561.79 1.2742 49.374 1.9113 0.95564 30.262 12.742v-5.7338c-2.2298-13.697-1.9113-58.931-33.447-57.338z" fill="#747d7a" fill-rule="evenodd"/>
  <path d="m199.23 617.82 0.57553 24.556 0.95922 1.5348c19.248 2.6219 32.925 4.1817 51.406 14.477 3.8789-3.5804 0.07226-1.368-1.3346-3.3504-2.3661-0.57553-6.4439-7.5392-7.7987-8.5466l-2.9445-6.801c-14.196-11.894-30.311-17.841-40.863-21.87z" fill="#6e7572" fill-rule="evenodd"/>
  <path d="m541.59 388.02-9.2843 4.1264c9.4562 67.053 12.207 132.04 14.442 194.97l12.379 3.0948c-5.3299-69.976-9.1124-135.83-17.537-202.19z" fill="url(#g)" fill-rule="evenodd" opacity=".50581"/>
  <path d="m303.67 665.71 9.784 1.4495 16.307 4.3484c47.712 10.871 97.598 5.0732 105.09-4.3484l11.596-8.6969 38.774-2.899 6.1603-5.4355-187.71 15.582z" fill="#636b61" fill-rule="evenodd" stroke="#4c4a47" stroke-width=".2"/>
  <path d="m285.78 357.8c5.6469 68.745 10.557 159.59 10.312 241.59 89.368-1.4731 175.39-4.9407 261.08-9.36-3.0094-69.021-7.8893-144.42-16.543-202.77-85.194-9.0841-169.65-20.378-254.85-29.462zm-20.623-36.828 9.5752 332.18 5.1558 3.6828c97.47 1.2276 195.68-1.2276 294.62-22.833-6.3834-91.332-12.528-181.95-18.912-273.28-95.758-17.712-195.18-31.16-290.44-39.753z" fill="#d5d3d1" fill-rule="evenodd" stroke="#b0acaf"/>
  <path d="m252.04 653.3-8.1679-319.72" fill="none" stroke="#000" stroke-width=".4"/>
  <path d="m525.26 619.15 13.986-0.84693 0.55865 15.269-14.2 1.3199-0.34465-15.742z" fill="#d4d3d1" opacity=".89535" stroke="#000"/>
  <path d="m540.51 634.45-15.859 1.5026-0.41815-16.908" fill="none" opacity=".89535" stroke="#000" stroke-width=".4"/>
  <path transform="matrix(.70173 .01332 -.056932 1.3564 145.01 -228.51)" d="m409.76 635.45a11.456 2.864 0 1 1 -22.912 0 11.456 2.864 0 1 1 22.912 0z" fill="url(#f)" stroke="#000" stroke-width=".7581"/>
  <path transform="matrix(.70178 -.010206 -.011439 1.3576 144.77 -220.8)" d="m409.76 635.45a11.456 2.864 0 1 1 -22.912 0 11.456 2.864 0 1 1 22.912 0z" fill="url(#e)" stroke="#000" stroke-width=".7581"/>
  <path transform="matrix(.70166 -.016715 .0011546 1.3576 165.66 -219.26)" d="m409.76 635.45a11.456 2.864 0 1 1 -22.912 0 11.456 2.864 0 1 1 22.912 0z" fill="url(#d)" stroke="#000" stroke-width=".7581"/>
  <path transform="matrix(.69765 -.07672 .11737 1.3526 117.34 -194.44)" d="m409.76 635.45a11.456 2.864 0 1 1 -22.912 0 11.456 2.864 0 1 1 22.912 0z" fill="url(#c)" stroke="#000" stroke-width=".7581"/>
  <path d="m469.73 683.77c-40.388-6.1679-94.642-1.9942-153.36 28.738l-29.929-7.6272-15.887-7.0851-5.4661-4.0312 1.1104-3.759 1.0122-3.0365 9.1094-4.0486 17.749-5.6939 13.628-7.4642 6.2691-2.5079c25.126 5.9326 67.37 18.679 120.25 1.3446l2.0243-0.86094 33.492 16.032z" fill="#4c524e" fill-opacity=".63095" fill-rule="evenodd"/>
 </g>
</svg>
